<svg xmlns="http://www.w3.org/2000/svg" viewBox="0 0 16 16" fill="none">
  <path fill-rule="evenodd" clip-rule="evenodd" d="M6.00714 12.3625L3.43571 10.8287C2.732 10.4094 2.37971 10.1991 2.19029 9.89143C2 9.58379 2 9.22178 2 8.50063V5.72259C2 5.49222 2 5.29905 2.006 5.13236L7.14286 8.19442V13C6.83686 12.8569 6.48029 12.6444 6.00714 12.3625ZM8.85714 12.9993C9.16314 12.8562 9.51971 12.643 9.99286 12.3611L12.5643 10.8279C13.268 10.4087 13.6203 10.1984 13.8097 9.89072C14 9.58308 14 9.22178 14 8.49991V5.72187C14 5.4915 14 5.29834 13.994 5.13164L8.85714 8.19442V12.9993ZM13.2526 3.81524L8 6.94742L2.74743 3.81595C2.92914 3.69576 3.15457 3.56126 3.43571 3.39385L6.00714 1.86067C6.96971 1.28689 7.45143 1 8 1C8.54857 1 9.03029 1.28617 9.99286 1.86067L12.5643 3.39385C12.8463 3.56126 13.0709 3.69505 13.2526 3.81524Z" fill="#CF000C"/>
</svg>
