<svg xmlns="http://www.w3.org/2000/svg"  viewBox="0 0 60 60" fill="none">
  <path d="M27.5588 27.5303C27.5589 27.7579 27.4763 27.9778 27.3263 28.149L8.7225 49.3684L7.3125 48.1309L25.9144 26.9115C26.0399 26.7674 26.2066 26.6651 26.3919 26.6183C26.5773 26.5716 26.7725 26.5826 26.9514 26.6499C27.1303 26.7172 27.2844 26.8376 27.3929 26.995C27.5015 27.1523 27.5593 27.3391 27.5588 27.5303Z" fill="#B8D8EF"/>
  <path d="M60 19.1025C60 30.6187 50.9437 37.5 42.1875 37.5C39.6637 37.5 36.8831 36.8962 35.0775 36.0037L30.8381 44.4825C30.7602 44.638 30.6405 44.7688 30.4925 44.8602C30.3445 44.9516 30.174 45 30 45L22.5 45L22.5 50.625L22.4887 50.8369C22.4044 52.0856 22.0069 52.4587 20.625 52.5L13.125 52.5L13.125 58.125C13.125 58.3669 13.1512 58.5337 13.1681 58.6462C13.2037 58.8731 13.2694 59.2969 12.9394 59.6644C12.6019 60.0431 12.1744 60.0262 11.7975 60.0112C11.6625 60.0075 11.4844 60 11.25 60L2.75437 60C2.02402 59.9995 1.32372 59.7091 0.807284 59.1927C0.290846 58.6763 0.000494136 57.976 -2.50229e-06 57.2456L-2.1847e-06 49.98C0.00139078 49.312 0.243723 48.6669 0.682498 48.1631L22.3575 23.4375C22.1137 22.2206 21.7969 20.3812 21.7969 19.1006C21.7969 8.56875 30.3656 1.32732e-06 40.8975 1.78769e-06C51.4294 2.24805e-06 60 8.56875 60 19.1025ZM23.6719 19.1025C23.6719 20.0419 23.8969 21.6506 24.2869 23.5162C24.3175 23.6584 24.3143 23.8058 24.2775 23.9465C24.2407 24.0872 24.1713 24.2173 24.075 24.3262L2.09625 49.3969C1.95448 49.5581 1.87588 49.7653 1.875 49.98L1.875 57.2456C1.875 57.7312 2.26875 58.125 2.75437 58.125L11.25 58.125L11.25 51.5625C11.25 51.3139 11.3488 51.0754 11.5246 50.8996C11.7004 50.7238 11.9389 50.625 12.1875 50.625L20.625 50.625L20.625 44.0625C20.625 43.8139 20.7238 43.5754 20.8996 43.3996C21.0754 43.2238 21.3139 43.125 21.5625 43.125L29.4206 43.125L33.8494 34.2675C33.9101 34.1459 33.9965 34.039 34.1027 33.9541C34.2089 33.8692 34.3322 33.8084 34.4642 33.776C34.5962 33.7435 34.7337 33.7401 34.8671 33.7661C35.0005 33.792 35.1267 33.8467 35.2369 33.9262C36.375 34.7512 39.2006 35.625 42.1875 35.625C50.0213 35.625 58.125 29.445 58.125 19.1025C58.125 9.60375 50.3963 1.875 40.8975 1.875C31.3988 1.875 23.6719 9.60375 23.6719 19.1025Z" fill="#B8D8EF"/>
  <path d="M50.625 15.9375C50.625 19.5562 47.6812 22.5 44.0625 22.5C40.4437 22.5 37.5 19.5562 37.5 15.9375C37.5 12.3187 40.4438 9.375 44.0625 9.375C47.6812 9.375 50.625 12.3188 50.625 15.9375ZM39.375 15.9375C39.375 18.5212 41.4787 20.625 44.0625 20.625C46.6462 20.625 48.75 18.5212 48.75 15.9375C48.75 13.3538 46.6462 11.25 44.0625 11.25C41.4787 11.25 39.375 13.3537 39.375 15.9375Z" fill="#B8D8EF"/>
</svg>
