<svg xmlns="http://www.w3.org/2000/svg" viewBox="0 0 16 16" >
  <path d="M13.5 3H3C2.86739 3 2.74021 3.05268 2.64645 3.14645C2.55268 3.24021 2.5 3.36739 2.5 3.5V9.5C2.50091 10.2954 2.81727 11.0579 3.37968 11.6203C3.9421 12.1827 4.70463 12.4991 5.5 12.5H9C9.79537 12.4991 10.5579 12.1827 11.1203 11.6203C11.6827 11.0579 11.9991 10.2954 12 9.5V7H12.5625C13.0762 6.99942 13.5687 6.79511 13.9319 6.43188C14.2951 6.06865 14.4994 5.57618 14.5 5.0625V4C14.5 3.73478 14.3946 3.48043 14.2071 3.29289C14.0196 3.10536 13.7652 3 13.5 3ZM13.5 5.0625C13.5 5.31114 13.4012 5.5496 13.2254 5.72541C13.0496 5.90123 12.8111 6 12.5625 6H12V4H13.5V5.0625ZM12.5 13.5H2C1.86739 13.5 1.74021 13.5527 1.64645 13.6464C1.55268 13.7402 1.5 13.8674 1.5 14C1.5 14.1326 1.55268 14.2598 1.64645 14.3536C1.74021 14.4473 1.86739 14.5 2 14.5H12.5C12.6326 14.5 12.7598 14.4473 12.8536 14.3536C12.9473 14.2598 13 14.1326 13 14C13 13.8674 12.9473 13.7402 12.8536 13.6464C12.7598 13.5527 12.6326 13.5 12.5 13.5Z" />
</svg>
