<svg xmlns="http://www.w3.org/2000/svg" viewBox="0 0 24 24" fill="none">
  <path d="M22.725 22.375H22.4104V8.05837C22.4104 7.86509 22.2537 7.70831 22.0606 7.70831H12.8237C12.6304 7.70831 12.4737 7.86505 12.4737 8.05837V22.375H11.5262V1.27506C11.5262 1.08174 11.3694 0.925 11.1761 0.925H1.93952C1.7462 0.925 1.58946 1.08174 1.58946 1.27506V22.375H1.27506C1.08174 22.375 0.925 22.5317 0.925 22.725C0.925 22.9183 1.08174 23.0751 1.27506 23.0751H22.725C22.9183 23.0751 23.0751 22.9183 23.0751 22.725C23.0751 22.5317 22.9183 22.375 22.725 22.375ZM13.1738 8.40822H21.7105V22.375H13.1738V8.40822ZM2.28958 1.62491H10.8263V22.375H2.28958V1.62491Z" fill="black" stroke="black" stroke-width="0.15"/>
  <path d="M3.83149 3.14995C3.65218 3.14995 3.50664 3.29549 3.50664 3.4748V4.89562C3.50664 5.07511 3.65216 5.22068 3.83149 5.22068C4.01101 5.22068 4.15655 5.07514 4.15655 4.89562V3.4748C4.15655 3.29547 4.01098 3.14995 3.83149 3.14995Z" fill="black" stroke="black" stroke-width="0.1"/>
  <path d="M5.6479 3.14995C5.46859 3.14995 5.32305 3.29549 5.32305 3.4748V4.89562C5.32305 5.07511 5.46857 5.22068 5.6479 5.22068C5.82741 5.22068 5.97295 5.07514 5.97295 4.89562V3.4748C5.97295 3.29547 5.82739 3.14995 5.6479 3.14995Z" fill="black" stroke="black" stroke-width="0.1"/>
  <path d="M7.46646 3.14995C7.28697 3.14995 7.14141 3.29547 7.14141 3.4748V4.89562C7.14141 5.07514 7.28695 5.22068 7.46646 5.22068C7.64598 5.22068 7.79152 5.07514 7.79152 4.89562V3.4748C7.79152 3.29547 7.64596 3.14995 7.46646 3.14995Z" fill="black" stroke="black" stroke-width="0.1"/>
  <path d="M9.28482 3.14995C9.10533 3.14995 8.95977 3.29547 8.95977 3.4748V4.89562C8.95977 5.07514 9.10531 5.22068 9.28482 5.22068C9.46434 5.22068 9.60988 5.07514 9.60988 4.89562V3.4748C9.60988 3.29547 9.46431 3.14995 9.28482 3.14995Z" fill="black" stroke="black" stroke-width="0.1"/>
  <path d="M3.83149 6.31255C3.65216 6.31255 3.50664 6.45812 3.50664 6.63761V8.05843C3.50664 8.23774 3.65218 8.38328 3.83149 8.38328C4.01098 8.38328 4.15655 8.23776 4.15655 8.05843V6.63761C4.15655 6.45809 4.01101 6.31255 3.83149 6.31255Z" fill="black" stroke="black" stroke-width="0.1"/>
  <path d="M5.6479 6.31255C5.46857 6.31255 5.32305 6.45812 5.32305 6.63761V8.05843C5.32305 8.23774 5.46859 8.38328 5.6479 8.38328C5.82739 8.38328 5.97295 8.23776 5.97295 8.05843V6.63761C5.97295 6.45809 5.82741 6.31255 5.6479 6.31255Z" fill="black" stroke="black" stroke-width="0.1"/>
  <path d="M7.46646 6.31255C7.28695 6.31255 7.14141 6.45809 7.14141 6.63761V8.05843C7.14141 8.23776 7.28697 8.38328 7.46646 8.38328C7.64596 8.38328 7.79152 8.23776 7.79152 8.05843V6.63761C7.79152 6.45809 7.64598 6.31255 7.46646 6.31255Z" fill="black" stroke="black" stroke-width="0.1"/>
  <path d="M9.28482 6.31255C9.10531 6.31255 8.95977 6.45809 8.95977 6.63761V8.05843C8.95977 8.23776 9.10533 8.38328 9.28482 8.38328C9.46431 8.38328 9.60988 8.23776 9.60988 8.05843V6.63761C9.60988 6.45809 9.46434 6.31255 9.28482 6.31255Z" fill="black" stroke="black" stroke-width="0.1"/>
  <path d="M3.83149 9.4749C3.65216 9.4749 3.50664 9.62047 3.50664 9.79996V11.2208C3.50664 11.4003 3.65216 11.5458 3.83149 11.5458C4.01101 11.5458 4.15655 11.4003 4.15655 11.2208V9.79996C4.15655 9.62045 4.01101 9.4749 3.83149 9.4749Z" fill="black" stroke="black" stroke-width="0.1"/>
  <path d="M5.6479 9.4749C5.46857 9.4749 5.32305 9.62047 5.32305 9.79996V11.2208C5.32305 11.4003 5.46857 11.5458 5.6479 11.5458C5.82741 11.5458 5.97295 11.4003 5.97295 11.2208V9.79996C5.97295 9.62045 5.82741 9.4749 5.6479 9.4749Z" fill="black" stroke="black" stroke-width="0.1"/>
  <path d="M7.46646 9.4749C7.28695 9.4749 7.14141 9.62045 7.14141 9.79996V11.2208C7.14141 11.4003 7.28695 11.5458 7.46646 11.5458C7.64598 11.5458 7.79152 11.4003 7.79152 11.2208V9.79996C7.79152 9.62045 7.64598 9.4749 7.46646 9.4749Z" fill="black" stroke="black" stroke-width="0.1"/>
  <path d="M9.28482 9.4749C9.10531 9.4749 8.95977 9.62045 8.95977 9.79996V11.2208C8.95977 11.4003 9.10531 11.5458 9.28482 11.5458C9.46434 11.5458 9.60988 11.4003 9.60988 11.2208V9.79996C9.60988 9.62045 9.46434 9.4749 9.28482 9.4749Z" fill="black" stroke="black" stroke-width="0.1"/>
  <path d="M3.83149 12.6375C3.65221 12.6375 3.50664 12.7828 3.50664 12.9623V14.3832C3.50664 14.5627 3.65216 14.7082 3.83149 14.7082C4.01101 14.7082 4.15655 14.5627 4.15655 14.3832V12.9623C4.15655 12.7828 4.01096 12.6375 3.83149 12.6375Z" fill="black" stroke="black" stroke-width="0.1"/>
  <path d="M5.6479 12.6375C5.46861 12.6375 5.32305 12.7828 5.32305 12.9623V14.3832C5.32305 14.5627 5.46857 14.7082 5.6479 14.7082C5.82741 14.7082 5.97295 14.5627 5.97295 14.3832V12.9623C5.97295 12.7828 5.82736 12.6375 5.6479 12.6375Z" fill="black" stroke="black" stroke-width="0.1"/>
  <path d="M7.46646 12.6375C7.287 12.6375 7.14141 12.7828 7.14141 12.9623V14.3832C7.14141 14.5627 7.28695 14.7082 7.46646 14.7082C7.64598 14.7082 7.79152 14.5627 7.79152 14.3832V12.9623C7.79152 12.7828 7.64593 12.6375 7.46646 12.6375Z" fill="black" stroke="black" stroke-width="0.1"/>
  <path d="M9.28482 12.6375C9.10536 12.6375 8.95977 12.7828 8.95977 12.9623V14.3832C8.95977 14.5627 9.10531 14.7082 9.28482 14.7082C9.46434 14.7082 9.60988 14.5627 9.60988 14.3832V12.9623C9.60988 12.7828 9.46429 12.6375 9.28482 12.6375Z" fill="black" stroke="black" stroke-width="0.1"/>
  <path d="M3.83149 15.8001C3.65216 15.8001 3.50664 15.9457 3.50664 16.1252V17.5458C3.50664 17.7253 3.65216 17.8708 3.83149 17.8708C4.01101 17.8708 4.15655 17.7253 4.15655 17.5458V16.1252C4.15655 15.9456 4.01101 15.8001 3.83149 15.8001Z" fill="black" stroke="black" stroke-width="0.1"/>
  <path d="M5.6479 15.8001C5.46857 15.8001 5.32305 15.9457 5.32305 16.1252V17.5458C5.32305 17.7253 5.46857 17.8708 5.6479 17.8708C5.82741 17.8708 5.97295 17.7253 5.97295 17.5458V16.1252C5.97295 15.9456 5.82741 15.8001 5.6479 15.8001Z" fill="black" stroke="black" stroke-width="0.1"/>
  <path d="M7.46646 15.8001C7.28695 15.8001 7.14141 15.9456 7.14141 16.1252V17.5458C7.14141 17.7253 7.28695 17.8708 7.46646 17.8708C7.64598 17.8708 7.79152 17.7253 7.79152 17.5458V16.1252C7.79152 15.9456 7.64598 15.8001 7.46646 15.8001Z" fill="black" stroke="black" stroke-width="0.1"/>
  <path d="M9.28482 15.8001C9.10531 15.8001 8.95977 15.9456 8.95977 16.1252V17.5458C8.95977 17.7253 9.10531 17.8708 9.28482 17.8708C9.46434 17.8708 9.60988 17.7253 9.60988 17.5458V16.1252C9.60988 15.9456 9.46434 15.8001 9.28482 15.8001Z" fill="black" stroke="black" stroke-width="0.1"/>
  <path d="M3.83149 18.9625C3.65216 18.9625 3.50664 19.108 3.50664 19.2875V20.7083C3.50664 20.8879 3.65221 21.0332 3.83149 21.0332C4.01096 21.0332 4.15655 20.8879 4.15655 20.7083V19.2875C4.15655 19.108 4.01101 18.9625 3.83149 18.9625Z" fill="black" stroke="black" stroke-width="0.1"/>
  <path d="M5.6479 18.9625C5.46857 18.9625 5.32305 19.108 5.32305 19.2875V20.7083C5.32305 20.8879 5.46861 21.0332 5.6479 21.0332C5.82736 21.0332 5.97295 20.8879 5.97295 20.7083V19.2875C5.97295 19.108 5.82741 18.9625 5.6479 18.9625Z" fill="black" stroke="black" stroke-width="0.1"/>
  <path d="M7.46646 18.9625C7.28695 18.9625 7.14141 19.108 7.14141 19.2875V20.7083C7.14141 20.8879 7.287 21.0332 7.46646 21.0332C7.64593 21.0332 7.79152 20.8879 7.79152 20.7083V19.2875C7.79152 19.108 7.64598 18.9625 7.46646 18.9625Z" fill="black" stroke="black" stroke-width="0.1"/>
  <path d="M9.28482 18.9625C9.10531 18.9625 8.95977 19.108 8.95977 19.2875V20.7083C8.95977 20.8879 9.10536 21.0332 9.28482 21.0332C9.46429 21.0332 9.60988 20.8879 9.60988 20.7083V19.2875C9.60988 19.108 9.46434 18.9625 9.28482 18.9625Z" fill="black" stroke="black" stroke-width="0.1"/>
  <path d="M14.7145 9.4749C14.535 9.4749 14.3895 9.62045 14.3895 9.79996V11.2208C14.3895 11.4003 14.535 11.5458 14.7145 11.5458C14.8938 11.5458 15.0394 11.4003 15.0394 11.2208V9.79996C15.0394 9.62047 14.8938 9.4749 14.7145 9.4749Z" fill="black" stroke="black" stroke-width="0.1"/>
  <path d="M16.5329 9.4749C16.3534 9.4749 16.2078 9.62045 16.2078 9.79996V11.2208C16.2078 11.4003 16.3534 11.5458 16.5329 11.5458C16.7122 11.5458 16.8577 11.4003 16.8577 11.2208V9.79996C16.8577 9.62047 16.7122 9.4749 16.5329 9.4749Z" fill="black" stroke="black" stroke-width="0.1"/>
  <path d="M18.3512 9.4749C18.1717 9.4749 18.0262 9.62045 18.0262 9.79996V11.2208C18.0262 11.4003 18.1717 11.5458 18.3512 11.5458C18.5307 11.5458 18.6763 11.4003 18.6763 11.2208V9.79996C18.6763 9.62045 18.5307 9.4749 18.3512 9.4749Z" fill="black" stroke="black" stroke-width="0.1"/>
  <path d="M20.1696 9.4749C19.9901 9.4749 19.8445 9.62045 19.8445 9.79996V11.2208C19.8445 11.4003 19.9901 11.5458 20.1696 11.5458C20.3491 11.5458 20.4946 11.4003 20.4946 11.2208V9.79996C20.4946 9.62045 20.3491 9.4749 20.1696 9.4749Z" fill="black" stroke="black" stroke-width="0.1"/>
  <path d="M14.7145 12.6375C14.535 12.6375 14.3895 12.7828 14.3895 12.9623V14.3832C14.3895 14.5627 14.535 14.7082 14.7145 14.7082C14.8938 14.7082 15.0394 14.5627 15.0394 14.3832V12.9623C15.0394 12.7828 14.8938 12.6375 14.7145 12.6375Z" fill="black" stroke="black" stroke-width="0.1"/>
  <path d="M16.5329 12.6375C16.3534 12.6375 16.2078 12.7828 16.2078 12.9623V14.3832C16.2078 14.5627 16.3534 14.7082 16.5329 14.7082C16.7122 14.7082 16.8577 14.5627 16.8577 14.3832V12.9623C16.8577 12.7828 16.7122 12.6375 16.5329 12.6375Z" fill="black" stroke="black" stroke-width="0.1"/>
  <path d="M18.3512 12.6375C18.1718 12.6375 18.0262 12.7828 18.0262 12.9623V14.3832C18.0262 14.5627 18.1717 14.7082 18.3512 14.7082C18.5307 14.7082 18.6763 14.5627 18.6763 14.3832V12.9623C18.6763 12.7828 18.5307 12.6375 18.3512 12.6375Z" fill="black" stroke="black" stroke-width="0.1"/>
  <path d="M20.1696 12.6375C19.9901 12.6375 19.8445 12.7828 19.8445 12.9623V14.3832C19.8445 14.5627 19.9901 14.7082 20.1696 14.7082C20.3491 14.7082 20.4946 14.5627 20.4946 14.3832V12.9623C20.4946 12.7828 20.3491 12.6375 20.1696 12.6375Z" fill="black" stroke="black" stroke-width="0.1"/>
  <path d="M14.7145 15.8001C14.535 15.8001 14.3895 15.9456 14.3895 16.1252V17.5458C14.3895 17.7253 14.535 17.8708 14.7145 17.8708C14.8938 17.8708 15.0394 17.7253 15.0394 17.5458V16.1252C15.0394 15.9457 14.8938 15.8001 14.7145 15.8001Z" fill="black" stroke="black" stroke-width="0.1"/>
  <path d="M16.5329 15.8001C16.3534 15.8001 16.2078 15.9456 16.2078 16.1252V17.5458C16.2078 17.7253 16.3534 17.8708 16.5329 17.8708C16.7122 17.8708 16.8577 17.7253 16.8577 17.5458V16.1252C16.8577 15.9457 16.7122 15.8001 16.5329 15.8001Z" fill="black" stroke="black" stroke-width="0.1"/>
  <path d="M18.3512 15.8001C18.1717 15.8001 18.0262 15.9456 18.0262 16.1252V17.5458C18.0262 17.7253 18.1717 17.8708 18.3512 17.8708C18.5307 17.8708 18.6763 17.7253 18.6763 17.5458V16.1252C18.6763 15.9456 18.5307 15.8001 18.3512 15.8001Z" fill="black" stroke="black" stroke-width="0.1"/>
  <path d="M20.1696 15.8001C19.9901 15.8001 19.8445 15.9456 19.8445 16.1252V17.5458C19.8445 17.7253 19.9901 17.8708 20.1696 17.8708C20.3491 17.8708 20.4946 17.7253 20.4946 17.5458V16.1252C20.4946 15.9456 20.3491 15.8001 20.1696 15.8001Z" fill="black" stroke="black" stroke-width="0.1"/>
  <path d="M14.7145 18.9625C14.535 18.9625 14.3895 19.108 14.3895 19.2875V20.7083C14.3895 20.8879 14.535 21.0332 14.7145 21.0332C14.8938 21.0332 15.0394 20.8879 15.0394 20.7083V19.2875C15.0394 19.108 14.8938 18.9625 14.7145 18.9625Z" fill="black" stroke="black" stroke-width="0.1"/>
  <path d="M16.5329 18.9625C16.3534 18.9625 16.2078 19.108 16.2078 19.2875V20.7083C16.2078 20.8879 16.3534 21.0332 16.5329 21.0332C16.7122 21.0332 16.8577 20.8879 16.8577 20.7083V19.2875C16.8577 19.108 16.7122 18.9625 16.5329 18.9625Z" fill="black" stroke="black" stroke-width="0.1"/>
  <path d="M18.3512 18.9625C18.1717 18.9625 18.0262 19.108 18.0262 19.2875V20.7083C18.0262 20.8879 18.1718 21.0332 18.3512 21.0332C18.5307 21.0332 18.6763 20.8879 18.6763 20.7083V19.2875C18.6763 19.108 18.5307 18.9625 18.3512 18.9625Z" fill="black" stroke="black" stroke-width="0.1"/>
  <path d="M20.1696 18.9625C19.9901 18.9625 19.8445 19.108 19.8445 19.2875V20.7083C19.8445 20.8879 19.9901 21.0332 20.1696 21.0332C20.3491 21.0332 20.4946 20.8879 20.4946 20.7083V19.2875C20.4946 19.108 20.3491 18.9625 20.1696 18.9625Z" fill="black" stroke="black" stroke-width="0.1"/>
</svg>
