<svg xmlns="http://www.w3.org/2000/svg" viewBox="0 0 32 32">
  <path d="M9.0621 7.38925L10.434 6.01738C10.467 5.98417 10.4901 5.94235 10.5005 5.89669C10.511 5.85102 10.5084 5.80334 10.4931 5.75906C10.4778 5.71478 10.4504 5.67568 10.414 5.64622C10.3776 5.61675 10.3336 5.5981 10.2871 5.59238L5.28085 5.00175C5.12148 4.983 4.98398 5.11738 5.00273 5.27988L5.59335 10.2861C5.61835 10.4924 5.87148 10.5799 6.01835 10.433L7.38398 9.06738L11.5621 13.2424C11.659 13.3393 11.8184 13.3393 11.9152 13.2424L13.2402 11.9205C13.3371 11.8236 13.3371 11.6643 13.2402 11.5674L9.0621 7.38925ZM20.084 13.2424C20.1809 13.3393 20.3402 13.3393 20.4371 13.2424L24.6152 9.06738L25.9809 10.433C26.0141 10.466 26.0559 10.4891 26.1015 10.4996C26.1472 10.51 26.1949 10.5075 26.2392 10.4922C26.2835 10.4768 26.3225 10.4494 26.352 10.413C26.3815 10.3766 26.4001 10.3326 26.4059 10.2861L26.9965 5.283C27.0152 5.12363 26.8809 4.98613 26.7184 5.00488L21.7121 5.5955C21.5059 5.6205 21.4184 5.87363 21.5652 6.0205L22.9371 7.39238L18.759 11.5643C18.7125 11.6112 18.6864 11.6747 18.6864 11.7408C18.6864 11.8069 18.7125 11.8704 18.759 11.9174L20.084 13.2424ZM26.4059 21.7174C26.3809 21.5111 26.1277 21.4236 25.9809 21.5705L24.6152 22.9361L20.4371 18.7611C20.3901 18.7146 20.3267 18.6885 20.2605 18.6885C20.1944 18.6885 20.131 18.7146 20.084 18.7611L18.759 20.083C18.7125 20.13 18.6864 20.1934 18.6864 20.2596C18.6864 20.3257 18.7125 20.3891 18.759 20.4361L22.9371 24.6143L21.5652 25.9861C21.5322 26.0193 21.5091 26.0612 21.4987 26.1068C21.4882 26.1525 21.4908 26.2002 21.5061 26.2444C21.5214 26.2887 21.5488 26.3278 21.5852 26.3573C21.6216 26.3868 21.6656 26.4054 21.7121 26.4111L26.7184 27.0018C26.8777 27.0205 27.0152 26.8861 26.9965 26.7236L26.4059 21.7174ZM11.9152 18.7611C11.8682 18.7146 11.8048 18.6885 11.7387 18.6885C11.6725 18.6885 11.6091 18.7146 11.5621 18.7611L7.38398 22.9361L6.01835 21.5705C5.98514 21.5375 5.94333 21.5144 5.89766 21.5039C5.852 21.4935 5.80431 21.496 5.76003 21.5114C5.71575 21.5267 5.67666 21.5541 5.64719 21.5905C5.61773 21.6269 5.59907 21.6709 5.59335 21.7174L5.00273 26.7205C4.98398 26.8799 5.11835 27.0174 5.28085 26.9986L10.2871 26.408C10.4934 26.383 10.5809 26.1299 10.434 25.983L9.0621 24.6143L13.2402 20.4393C13.3371 20.3424 13.3371 20.183 13.2402 20.0861L11.9152 18.7611Z" />
</svg>
