<svg xmlns="http://www.w3.org/2000/svg" viewBox="0 0 16 16" fill="none">
  <path d="M13.8921 4.07455C13.5516 3.73389 13.1473 3.46365 12.7023 3.27927C12.2574 3.0949 11.7804 3 11.2988 3C10.8171 3 10.3402 3.0949 9.89521 3.27927C9.45023 3.46365 9.04595 3.73389 8.70544 4.07455L7.99878 4.78122L7.29211 4.07455C6.60432 3.38676 5.67147 3.00036 4.69878 3.00036C3.72609 3.00036 2.79324 3.38676 2.10544 4.07455C1.41765 4.76235 1.03125 5.69519 1.03125 6.66788C1.03125 7.64057 1.41765 8.57342 2.10544 9.26122L2.81211 9.96788L7.99878 15.1545L13.1854 9.96788L13.8921 9.26122C14.2328 8.92071 14.503 8.51643 14.6874 8.07145C14.8718 7.62648 14.9667 7.14954 14.9667 6.66788C14.9667 6.18623 14.8718 5.70929 14.6874 5.26431C14.503 4.81934 14.2328 4.41505 13.8921 4.07455Z" stroke-width="1.2" stroke-linecap="round" stroke-linejoin="round"/>
</svg>
