<svg xmlns="http://www.w3.org/2000/svg" viewBox="0 0 24 24" fill="none">
  <path d="M20.8421 6.1089C20.3313 5.5979 19.7249 5.19254 19.0574 4.91598C18.39 4.63942 17.6746 4.49707 16.9521 4.49707C16.2296 4.49707 15.5142 4.63942 14.8467 4.91598C14.1793 5.19254 13.5728 5.5979 13.0621 6.1089L12.0021 7.1689L10.9421 6.1089C9.91038 5.0772 8.51111 4.49761 7.05207 4.49761C5.59304 4.49761 4.19376 5.0772 3.16207 6.1089C2.13038 7.14059 1.55078 8.53986 1.55078 9.9989C1.55078 11.4579 2.13038 12.8572 3.16207 13.8889L4.22207 14.9489L12.0021 22.7289L19.7821 14.9489L20.8421 13.8889C21.3531 13.3781 21.7584 12.7717 22.035 12.1043C22.3115 11.4368 22.4539 10.7214 22.4539 9.9989C22.4539 9.27641 22.3115 8.561 22.035 7.89354C21.7584 7.22608 21.3531 6.61965 20.8421 6.1089Z" stroke="#181823" stroke-width="1.2" stroke-linecap="round" stroke-linejoin="round"/>
</svg>
