<svg xmlns="http://www.w3.org/2000/svg" width="16" height="16" viewBox="0 0 16 16" fill="none">
  <path fill-rule="evenodd" clip-rule="evenodd" d="M6.97416 2.18812C7.09347 2.04498 7.24146 1.92845 7.40857 1.84603C7.57569 1.7636 7.75823 1.71713 7.94441 1.70959C8.13059 1.70205 8.31629 1.73362 8.48952 1.80226C8.66275 1.87091 8.81968 1.9751 8.95016 2.10812L9.02216 2.18812L11.6435 5.33345H13.6335C13.7734 5.33315 13.9118 5.36241 14.0396 5.41931C14.1674 5.47621 14.2818 5.55947 14.3752 5.66363C14.4686 5.7678 14.5389 5.89051 14.5816 6.02375C14.6243 6.15699 14.6383 6.29774 14.6228 6.43678L14.5615 6.94745L14.4948 7.44078L14.4402 7.81012L14.3768 8.20678L14.3048 8.62345L14.2235 9.05545L14.1328 9.49612C14.0848 9.71812 14.0335 9.94078 13.9782 10.1621C13.8306 10.7475 13.6453 11.3227 13.4235 11.8841L13.2762 12.2441L13.1335 12.5694L12.9988 12.8588L12.9362 12.9881L12.7702 13.3148C12.5568 13.7214 12.1542 13.9614 11.7282 13.9961L11.6215 14.0001H4.36816C4.13508 14.0019 3.90589 13.9404 3.70509 13.822C3.5043 13.7036 3.33944 13.5329 3.22816 13.3281L3.0735 13.0281L2.9535 12.7814C2.93213 12.736 2.91102 12.6905 2.89016 12.6448L2.75683 12.3454C2.45246 11.6384 2.20544 10.9081 2.01816 10.1614C1.98199 10.0165 1.94732 9.87114 1.91416 9.72545L1.8195 9.29345L1.73483 8.87078L1.66016 8.46212L1.5935 8.07078L1.5355 7.70145L1.48616 7.35945L1.42616 6.90412L1.38216 6.53345C1.37832 6.49946 1.37454 6.46546 1.37083 6.43145C1.35686 6.30044 1.36912 6.16796 1.4069 6.04175C1.44468 5.91553 1.50723 5.79811 1.59089 5.69633C1.67454 5.59455 1.77764 5.51045 1.89415 5.44895C2.01067 5.38745 2.13826 5.34977 2.2695 5.33812L2.36016 5.33345H4.35283L6.97416 2.18812ZM6.63883 8.48145C6.59373 8.32415 6.49236 8.18894 6.35401 8.10155C6.21567 8.01416 6.05002 7.98071 5.8886 8.00755C5.72719 8.0344 5.58128 8.11968 5.47867 8.24714C5.37606 8.37461 5.32392 8.53536 5.33216 8.69878L5.34083 8.77611L5.67416 10.7761L5.69083 10.8521C5.73593 11.0094 5.8373 11.1446 5.97565 11.232C6.11399 11.3194 6.27964 11.3529 6.44106 11.326C6.60247 11.2992 6.74838 11.2139 6.85099 11.0864C6.9536 10.959 7.00574 10.7982 6.9975 10.6348L6.98883 10.5574L6.6555 8.55745L6.63883 8.48145ZM10.1075 8.00945C9.94637 7.98257 9.78098 8.01579 9.64272 8.1028C9.50447 8.18981 9.40297 8.32455 9.3575 8.48145L9.34083 8.55745L9.0075 10.5574C8.97967 10.7252 9.01698 10.8972 9.1118 11.0383C9.20662 11.1795 9.35178 11.279 9.51759 11.3167C9.68339 11.3543 9.85732 11.3272 10.0038 11.2408C10.1502 11.1545 10.2582 11.0154 10.3055 10.8521L10.3222 10.7761L10.6555 8.77611C10.6844 8.60179 10.6429 8.42312 10.5402 8.27936C10.4374 8.1356 10.2818 8.03852 10.1075 8.00945ZM7.99816 3.04145L6.08816 5.33345H9.90816L7.99816 3.04145Z" fill="white"/>
</svg>
