<svg xmlns="http://www.w3.org/2000/svg" viewBox="0 0 16 16" >
  <path d="M8.00561 8.229C10.1957 8.22834 11.9697 6.58428 11.969 4.55765C11.9683 2.53036 10.1922 0.888262 8.00279 0.888916C5.81338 0.88957 4.03869 2.53363 4.03939 4.56026C4.04222 6.58624 5.81692 8.22769 8.00561 8.229ZM8.00561 3.04045C8.91274 3.04045 9.6482 3.72123 9.6482 4.56092C9.6482 5.40061 8.91274 6.08073 8.00561 6.08073C7.09848 6.08073 6.36303 5.39995 6.36303 4.56026C6.36444 3.72123 7.09919 3.04111 8.00561 3.04045ZM9.60863 11.2235C10.4246 11.0522 11.2032 10.7533 11.9118 10.3406C12.4515 10.0182 12.607 9.3525 12.2587 8.85288C11.916 8.3611 11.2109 8.21265 10.6726 8.51936C9.03991 9.46433 6.96708 9.46433 5.33439 8.51936C4.79251 8.2048 4.07684 8.35521 3.7356 8.85615C3.39296 9.35774 3.55404 10.0222 4.09662 10.3393C4.09733 10.3393 4.09803 10.34 4.09803 10.34C4.80593 10.752 5.58448 11.0508 6.39977 11.2228L4.18281 13.275C3.74126 13.7066 3.76174 14.388 4.22873 14.7967C4.67735 15.1891 5.37819 15.1891 5.82681 14.7967L8.0042 12.7799L10.183 14.7967C10.6366 15.2159 11.3706 15.2159 11.8242 14.7967C12.277 14.3769 12.277 13.6974 11.8242 13.2776L9.60863 11.2235Z" />
</svg>
