<svg xmlns="http://www.w3.org/2000/svg" viewBox="0 0 16 16" fill="none">
    <path d="M4.1956 2.8633C4.32062 2.73832 4.49016 2.66811 4.66694 2.66811C4.84371 2.66811 5.01325 2.73832 5.13827 2.8633L7.80494 5.52997C7.92638 5.6557 7.99357 5.8241 7.99205 5.9989C7.99053 6.1737 7.92042 6.34091 7.79682 6.46451C7.67321 6.58812 7.506 6.65823 7.3312 6.65975C7.15641 6.66127 6.98801 6.59407 6.86227 6.47264L5.3336 4.94397V12.668C5.3336 12.8448 5.26337 13.0143 5.13834 13.1394C5.01332 13.2644 4.84375 13.3346 4.66694 13.3346C4.49013 13.3346 4.32056 13.2644 4.19553 13.1394C4.07051 13.0143 4.00027 12.8448 4.00027 12.668V4.94397L2.4716 6.47264C2.34587 6.59407 2.17747 6.66127 2.00267 6.65975C1.82787 6.65823 1.66066 6.58812 1.53706 6.46451C1.41345 6.34091 1.34334 6.1737 1.34182 5.9989C1.3403 5.8241 1.4075 5.6557 1.52894 5.52997L4.1956 2.8633ZM10.6669 11.0586V3.33464C10.6669 3.15782 10.7372 2.98826 10.8622 2.86323C10.9872 2.73821 11.1568 2.66797 11.3336 2.66797C11.5104 2.66797 11.68 2.73821 11.805 2.86323C11.93 2.98826 12.0003 3.15782 12.0003 3.33464V11.0586L13.5289 9.52997C13.6547 9.40853 13.8231 9.34133 13.9979 9.34285C14.1727 9.34437 14.3399 9.41448 14.4635 9.53809C14.5871 9.6617 14.6572 9.8289 14.6587 10.0037C14.6602 10.1785 14.593 10.3469 14.4716 10.4726L11.8049 13.1393C11.6799 13.2643 11.5104 13.3345 11.3336 13.3345C11.1568 13.3345 10.9873 13.2643 10.8623 13.1393L8.1956 10.4726C8.07417 10.3469 8.00697 10.1785 8.00849 10.0037C8.01001 9.8289 8.08012 9.6617 8.20373 9.53809C8.32733 9.41448 8.49454 9.34437 8.66934 9.34285C8.84413 9.34133 9.01254 9.40853 9.13827 9.52997L10.6669 11.0586Z" fill="#212173"/>
</svg>
