<svg xmlns="http://www.w3.org/2000/svg" width="14" height="20" viewBox="0 0 14 20" fill="none">
  <path fill-rule="evenodd" clip-rule="evenodd" d="M0.972656 7.44763C2.15467 7.60523 3.91936 7.44762 5.36438 6.41141C6.05696 5.91477 6.64971 5.23561 7.06739 4.34043C7.48506 5.23561 8.07781 5.91477 8.77039 6.41141C10.2154 7.44762 11.9801 7.60523 13.1621 7.44763L12.9922 6.1732C12.0313 6.30131 10.6246 6.15893 9.51963 5.36656C8.60574 4.71123 7.81054 3.54776 7.71068 1.48621C7.72313 1.19508 7.72346 0.891597 7.71081 0.575381C7.71312 0.523922 7.71582 0.471994 7.7189 0.419592L7.70353 0.418688C7.70222 0.3939 7.70083 0.369034 7.69937 0.344093L7.06738 0.381268L6.4354 0.344093C6.43394 0.369035 6.43255 0.3939 6.43124 0.418688L6.41587 0.419592C6.41895 0.471994 6.42165 0.523922 6.42396 0.575381C6.41131 0.891598 6.41164 1.19508 6.42408 1.48621C6.32423 3.54776 5.52903 4.71123 4.61514 5.36656C3.51017 6.15893 2.10343 6.30131 1.14258 6.1732L0.972656 7.44763Z" fill="#020202"/>
  <path d="M7.05859 0.428015L7.05859 19.2852" stroke="#020202" stroke-width="1.28571"/>
</svg>
