<svg xmlns="http://www.w3.org/2000/svg" viewBox="0 0 16 16" >
  <path d="M11.75 9.46094H8.625V12.5859C8.625 12.7517 8.55915 12.9107 8.44194 13.0279C8.32473 13.1451 8.16576 13.2109 8 13.2109C7.83424 13.2109 7.67527 13.1451 7.55806 13.0279C7.44085 12.9107 7.375 12.7517 7.375 12.5859V9.46094H4.25C4.08424 9.46094 3.92527 9.39509 3.80806 9.27788C3.69085 9.16067 3.625 9.0017 3.625 8.83594C3.625 8.67018 3.69085 8.51121 3.80806 8.394C3.92527 8.27679 4.08424 8.21094 4.25 8.21094H7.375V5.08594C7.375 4.92018 7.44085 4.76121 7.55806 4.644C7.67527 4.52679 7.83424 4.46094 8 4.46094C8.16576 4.46094 8.32473 4.52679 8.44194 4.644C8.55915 4.76121 8.625 4.92018 8.625 5.08594V8.21094H11.75C11.9158 8.21094 12.0747 8.27679 12.1919 8.394C12.3092 8.51121 12.375 8.67018 12.375 8.83594C12.375 9.0017 12.3092 9.16067 12.1919 9.27788C12.0747 9.39509 11.9158 9.46094 11.75 9.46094Z" />
</svg>
