<svg xmlns="http://www.w3.org/2000/svg" viewBox="0 0 60 60" fill="none">
  <g clip-path="url(#clip0_1805_59998)">
    <mask id="path-1-inside-1_1805_59998" fill="white">
      <path d="M36.3602 53.4285V45.7299H42.7204V53.6764C42.7204 54.3334 42.4978 54.8843 42.0526 55.3293C41.6073 55.7764 41.0561 56 40.3989 56H38.9297C38.2004 56 37.5898 55.7542 37.098 55.2626C36.6061 54.7709 36.3602 54.1607 36.3602 53.4317M17.2796 53.4317V43.2824H2.59714C1.55831 43.2824 0.80145 42.8279 0.326556 41.9188C-0.150458 41.0097 -0.104876 40.1271 0.4633 39.271L10.4424 24.2108H9.2181C8.20471 24.2108 7.4436 23.7594 6.93479 22.8567C6.42598 21.954 6.48216 21.0746 7.10333 20.2185L18.3259 4.10615C18.6015 3.72472 18.9322 3.445 19.3181 3.267C19.7039 3.089 20.0898 3 20.4756 3C20.8615 3 21.241 3.089 21.6141 3.267C21.9893 3.44288 22.3158 3.7226 22.5936 4.10615L33.8161 20.2217C34.4352 21.0756 34.4914 21.9551 33.9847 22.8599C33.4758 23.7605 32.7147 24.2108 31.7014 24.2108H30.477L40.4752 39.271C41.0434 40.1271 41.089 41.0097 40.612 41.9188C40.1371 42.8279 39.3802 43.2824 38.3414 43.2824H23.6398V53.6764C23.6398 54.3334 23.4172 54.8843 22.972 55.3293C22.5268 55.7743 21.9756 55.9968 21.3183 55.9968H19.8491C19.1198 55.9968 18.5093 55.751 18.0174 55.2594C17.5256 54.7678 17.2796 54.1575 17.2796 53.4285M46.0213 43.2824L35.015 26.6583H36.3602C37.4033 26.6583 38.175 26.1996 38.6753 25.282C39.1735 24.3687 39.1131 23.484 38.494 22.6279L31.4978 12.6629L37.4064 4.10615C37.682 3.72472 38.0128 3.445 38.3986 3.267C38.7845 3.089 39.1703 3 39.5562 3C39.942 3 40.3215 3.089 40.6947 3.267C41.0699 3.44288 41.3964 3.7226 41.6741 4.10615L52.8967 20.2217C53.5157 21.0756 53.5719 21.9551 53.0652 22.8599C52.5564 23.7605 51.7953 24.2108 50.7819 24.2108H49.5576L59.5367 39.271C60.1049 40.1271 60.1505 41.0097 59.6734 41.9188C59.1986 42.8279 58.4417 43.2824 57.4029 43.2824H46.0213Z"/>
    </mask>
    <path d="M36.3602 45.7299V44.7299H35.3602V45.7299H36.3602ZM42.7204 45.7299H43.7204V44.7299H42.7204V45.7299ZM42.0526 55.3293L41.3456 54.622L41.3439 54.6237L42.0526 55.3293ZM17.2796 43.2824H18.2796V42.2824H17.2796V43.2824ZM0.326556 41.9188L1.21291 41.4558L1.21206 41.4542L0.326556 41.9188ZM0.4633 39.271L1.2965 39.824L1.29691 39.8234L0.4633 39.271ZM10.4424 24.2108L11.276 24.7632L12.3047 23.2108H10.4424V24.2108ZM7.10333 20.2185L7.91272 20.8058L7.91839 20.798L7.92391 20.79L7.10333 20.2185ZM18.3259 4.10615L17.5153 3.52048L17.5103 3.5275L17.5053 3.53461L18.3259 4.10615ZM20.4756 3V4V3ZM21.6141 3.267L21.1835 4.16958L21.1897 4.17248L21.6141 3.267ZM22.5936 4.10615L23.4142 3.53469L23.4089 3.52713L23.4035 3.51967L22.5936 4.10615ZM33.8161 20.2217L32.9955 20.7931L33.0009 20.8009L33.0065 20.8086L33.8161 20.2217ZM33.9847 22.8599L34.8553 23.3518L34.8572 23.3485L33.9847 22.8599ZM30.477 24.2108V23.2108H28.6128L29.6439 24.7639L30.477 24.2108ZM40.4752 39.271L41.3084 38.718L41.3083 38.7179L40.4752 39.271ZM40.612 41.9188L39.7265 41.4542L39.7256 41.4558L40.612 41.9188ZM23.6398 43.2824V42.2824H22.6398V43.2824H23.6398ZM46.0213 43.2824L45.1875 43.8345L45.4841 44.2824H46.0213V43.2824ZM35.015 26.6583V25.6583H33.1536L34.1812 27.2104L35.015 26.6583ZM38.6753 25.282L37.7974 24.8031L37.7973 24.8033L38.6753 25.282ZM38.494 22.6279L37.6755 23.2025L37.6837 23.2138L38.494 22.6279ZM31.4978 12.6629L30.6749 12.0947L30.2793 12.6677L30.6794 13.2376L31.4978 12.6629ZM37.4064 4.10615L36.5959 3.52048L36.5896 3.52915L36.5836 3.53794L37.4064 4.10615ZM39.5562 3V4V3ZM40.6947 3.267L40.2641 4.16958L40.2703 4.17248L40.6947 3.267ZM41.6741 4.10615L42.4947 3.53469L42.4895 3.52713L42.4841 3.51967L41.6741 4.10615ZM52.8967 20.2217L52.076 20.7931L52.0815 20.8009L52.087 20.8086L52.8967 20.2217ZM53.0652 22.8599L53.9359 23.3518L53.9377 23.3485L53.0652 22.8599ZM49.5576 24.2108V23.2108H47.6954L48.724 24.7632L49.5576 24.2108ZM59.5367 39.271L58.7031 39.8234L58.7035 39.824L59.5367 39.271ZM59.6734 41.9188L58.7879 41.4542L58.7871 41.4558L59.6734 41.9188ZM37.3602 53.4285V45.7299H35.3602V53.4285H37.3602ZM36.3602 46.7299H42.7204V44.7299H36.3602V46.7299ZM41.7204 45.7299V53.6764H43.7204V45.7299H41.7204ZM41.7204 53.6764C41.7204 54.0809 41.5943 54.3735 41.3456 54.622L42.7595 56.0366C43.4013 55.3951 43.7204 54.5858 43.7204 53.6764H41.7204ZM41.3439 54.6237C41.0949 54.8738 40.8025 55 40.3989 55V57C41.3097 57 42.1198 56.6791 42.7612 56.0349L41.3439 54.6237ZM40.3989 55H38.9297V57H40.3989V55ZM38.9297 55C38.4512 55 38.0993 54.8496 37.8049 54.5553L36.391 55.9698C37.0803 56.6588 37.9496 57 38.9297 57V55ZM37.8049 54.5553C37.5105 54.2611 37.3602 53.9096 37.3602 53.4317H35.3602C35.3602 54.4117 35.7017 55.2808 36.391 55.9698L37.8049 54.5553ZM18.2796 53.4317V43.2824H16.2796V53.4317H18.2796ZM17.2796 42.2824H2.59714V44.2824H17.2796V42.2824ZM2.59714 42.2824C2.22673 42.2824 1.96256 42.2027 1.76522 42.0842C1.5686 41.9661 1.37915 41.774 1.2129 41.4558L-0.559792 42.3818C-0.251147 42.9726 0.175288 43.4623 0.735524 43.7988C1.29505 44.1348 1.92873 44.2824 2.59714 44.2824V42.2824ZM1.21206 41.4542C1.04323 41.1324 0.989516 40.8616 1.00165 40.6266C1.01379 40.3916 1.09517 40.1273 1.2965 39.824L-0.369898 38.718C-0.736745 39.2708 -0.962243 39.8759 -0.995687 40.5235C-1.02913 41.1711 -0.867132 41.7961 -0.558943 42.3834L1.21206 41.4542ZM1.29691 39.8234L11.276 24.7632L9.60883 23.6584L-0.370305 38.7187L1.29691 39.8234ZM10.4424 23.2108H9.2181V25.2108H10.4424V23.2108ZM9.2181 23.2108C8.57567 23.2108 8.14248 22.9628 7.80594 22.3657L6.06364 23.3477C6.74473 24.5561 7.83374 25.2108 9.2181 25.2108V23.2108ZM7.80594 22.3657C7.62959 22.0528 7.57958 21.7983 7.59328 21.5839C7.60708 21.3679 7.69079 21.1116 7.91272 20.8058L6.29395 19.6312C5.8947 20.1814 5.63973 20.793 5.59735 21.4564C5.55487 22.1213 5.73117 22.7579 6.06364 23.3477L7.80594 22.3657ZM7.92391 20.79L19.1465 4.6777L17.5053 3.53461L6.28276 19.6469L7.92391 20.79ZM19.1364 4.69182C19.3224 4.4344 19.5235 4.27351 19.737 4.17504L18.8992 2.35897C18.3409 2.6165 17.8805 3.01504 17.5153 3.52048L19.1364 4.69182ZM19.737 4.17504C20.0049 4.05143 20.2485 4 20.4756 4V2C19.931 2 19.4029 2.12657 18.8992 2.35897L19.737 4.17504ZM20.4756 4C20.702 4 20.9351 4.05104 21.1835 4.16956L22.0447 2.36444C21.5469 2.12696 21.0209 2 20.4756 2V4ZM21.1897 4.17248C21.3907 4.2667 21.5909 4.42655 21.7836 4.69264L23.4035 3.51967C23.0407 3.01866 22.588 2.61907 22.0385 2.36153L21.1897 4.17248ZM21.7729 4.67762L32.9955 20.7931L34.6367 19.6502L23.4142 3.53469L21.7729 4.67762ZM33.0065 20.8086C33.2271 21.1129 33.3107 21.3688 33.3246 21.5855C33.3383 21.8009 33.2883 22.0568 33.1121 22.3713L34.8572 23.3485C35.1877 22.7582 35.3629 22.1219 35.3205 21.458C35.2782 20.7952 35.0242 20.1844 34.6258 19.6347L33.0065 20.8086ZM33.114 22.368C32.778 22.9627 32.3449 23.2108 31.7014 23.2108V25.2108C33.0845 25.2108 34.1737 24.5583 34.8553 23.3518L33.114 22.368ZM31.7014 23.2108H30.477V25.2108H31.7014V23.2108ZM29.6439 24.7639L39.6421 39.8241L41.3083 38.7179L31.3101 23.6577L29.6439 24.7639ZM39.642 39.824C39.8434 40.1273 39.9247 40.3916 39.9369 40.6266C39.949 40.8616 39.8953 41.1324 39.7265 41.4542L41.4975 42.3834C41.8057 41.7961 41.9677 41.1711 41.9342 40.5235C41.9008 39.8759 41.6753 39.2708 41.3084 38.718L39.642 39.824ZM39.7256 41.4558C39.5594 41.774 39.3699 41.9661 39.1733 42.0842C38.976 42.2027 38.7118 42.2824 38.3414 42.2824V44.2824C39.0098 44.2824 39.6435 44.1348 40.203 43.7988C40.7632 43.4623 41.1897 42.9726 41.4983 42.3818L39.7256 41.4558ZM38.3414 42.2824H23.6398V44.2824H38.3414V42.2824ZM22.6398 43.2824V53.6764H24.6398V43.2824H22.6398ZM22.6398 53.6764C22.6398 54.0809 22.5137 54.3735 22.2651 54.622L23.6789 56.0366C24.3207 55.3951 24.6398 54.5858 24.6398 53.6764H22.6398ZM22.2651 54.622C22.0164 54.8706 21.7235 54.9968 21.3183 54.9968V56.9968C22.2277 56.9968 23.0372 56.678 23.6789 56.0366L22.2651 54.622ZM21.3183 54.9968H19.8491V56.9968H21.3183V54.9968ZM19.8491 54.9968C19.3706 54.9968 19.0188 54.8464 18.7244 54.5521L17.3105 55.9667C17.9998 56.6556 18.8691 56.9968 19.8491 56.9968V54.9968ZM18.7244 54.5521C18.43 54.2579 18.2796 53.9064 18.2796 53.4285H16.2796C16.2796 54.4085 16.6211 55.2777 17.3105 55.9667L18.7244 54.5521ZM46.8551 42.7304L35.8488 26.1063L34.1812 27.2104L45.1875 43.8345L46.8551 42.7304ZM35.015 27.6583H36.3602V25.6583H35.015V27.6583ZM36.3602 27.6583C37.0321 27.6583 37.6683 27.5091 38.2323 27.1738C38.7962 26.8386 39.2314 26.3509 39.5533 25.7607L37.7973 24.8033C37.6188 25.1306 37.4181 25.3311 37.2103 25.4547C37.0025 25.5782 36.7314 25.6583 36.3602 25.6583V27.6583ZM39.5532 25.7609C39.8774 25.1665 40.0466 24.5286 40.0013 23.8653C39.9561 23.2032 39.7024 22.5923 39.3044 22.0419L37.6837 23.2138C37.9048 23.5195 37.9908 23.7791 38.006 24.0016C38.0211 24.223 37.9714 24.4842 37.7974 24.8031L39.5532 25.7609ZM39.3125 22.0533L32.3163 12.0883L30.6794 13.2376L37.6756 23.2025L39.3125 22.0533ZM32.3207 13.2312L38.2293 4.67437L36.5836 3.53794L30.6749 12.0947L32.3207 13.2312ZM38.217 4.69182C38.403 4.4344 38.6041 4.27351 38.8175 4.17504L37.9797 2.35897C37.4215 2.6165 36.9611 3.01504 36.5959 3.52048L38.217 4.69182ZM38.8175 4.17504C39.0855 4.05143 39.3291 4 39.5562 4V2C39.0116 2 38.4835 2.12657 37.9797 2.35897L38.8175 4.17504ZM39.5562 4C39.7826 4 40.0156 4.05104 40.2641 4.16956L41.1252 2.36444C40.6274 2.12696 40.1015 2 39.5562 2V4ZM40.2703 4.17248C40.4713 4.2667 40.6715 4.42655 40.8642 4.69264L42.4841 3.51967C42.1213 3.01866 41.6685 2.61907 41.1191 2.36153L40.2703 4.17248ZM40.8535 4.67762L52.076 20.7931L53.7173 19.6502L42.4947 3.53469L40.8535 4.67762ZM52.087 20.8086C52.3077 21.1129 52.3913 21.3688 52.4051 21.5855C52.4189 21.8009 52.3688 22.0568 52.1927 22.3713L53.9377 23.3485C54.2683 22.7582 54.4435 22.1219 54.4011 21.458C54.3587 20.7952 54.1047 20.1844 53.7063 19.6347L52.087 20.8086ZM52.1946 22.368C51.8586 22.9627 51.4255 23.2108 50.7819 23.2108V25.2108C52.1651 25.2108 53.2542 24.5583 53.9359 23.3518L52.1946 22.368ZM50.7819 23.2108H49.5576V25.2108H50.7819V23.2108ZM48.724 24.7632L58.7031 39.8234L60.3703 38.7187L50.3912 23.6584L48.724 24.7632ZM58.7035 39.824C58.9048 40.1273 58.9862 40.3916 58.9984 40.6266C59.0105 40.8616 58.9568 41.1324 58.7879 41.4542L60.5589 42.3834C60.8671 41.7961 61.0291 41.1711 60.9957 40.5235C60.9622 39.8759 60.7367 39.2708 60.3699 38.718L58.7035 39.824ZM58.7871 41.4558C58.6208 41.774 58.4314 41.9661 58.2348 42.0842C58.0374 42.2027 57.7733 42.2824 57.4029 42.2824V44.2824C58.0713 44.2824 58.705 44.1348 59.2645 43.7988C59.8247 43.4623 60.2511 42.9726 60.5598 42.3818L58.7871 41.4558ZM57.4029 42.2824H46.0213V44.2824H57.4029V42.2824Z" fill="#398A32" mask="url(#path-1-inside-1_1805_59998)"/>
  </g>
  <defs>
    <clipPath id="clip0_1805_59998">
      <rect width="60" height="60" fill="white" transform="matrix(-4.37114e-08 1 1 4.37114e-08 0 0)"/>
    </clipPath>
  </defs>
</svg>
