<svg xmlns="http://www.w3.org/2000/svg" viewBox="0 0 16 16" >
  <path d="M8.64174 12.4347C3.77951 12.4347 1.00618 9.10135 0.890625 3.55469H3.32618C3.40618 7.6258 5.20174 9.35024 6.62396 9.7058V3.55469H8.91729V7.0658C10.3217 6.91469 11.7973 5.31469 12.2951 3.55469H14.5884C14.4008 4.46747 14.0269 5.33174 13.4901 6.09342C12.9532 6.8551 12.265 7.49781 11.4684 7.98135C12.3576 8.42318 13.143 9.04855 13.7727 9.8162C14.4024 10.5838 14.8622 11.4763 15.1217 12.4347H12.5973C12.3643 11.6023 11.8909 10.8571 11.2362 10.2926C10.5816 9.72809 9.77493 9.36936 8.91729 9.26135V12.4347H8.64174Z" />
</svg>
