<svg xmlns="http://www.w3.org/2000/svg" viewBox="0 0 32 32" fill="none">
  <g opacity="0.2">
    <path d="M8.31963 4.79883C7.93442 4.79883 7.56498 4.94984 7.2926 5.21864C7.02021 5.48744 6.86719 5.85202 6.86719 6.23216V26.2988C6.86719 26.679 7.02021 27.0435 7.2926 27.3123C7.56498 27.5811 7.93442 27.7322 8.31963 27.7322H12.677V22.7155C12.677 22.5254 12.7535 22.3431 12.8897 22.2087C13.0259 22.0743 13.2106 21.9988 13.4032 21.9988H17.7605C17.9531 21.9988 18.1378 22.0743 18.274 22.2087C18.4102 22.3431 18.4867 22.5254 18.4867 22.7155V27.7322H22.8441C23.2293 27.7322 23.5987 27.5811 23.8711 27.3123C24.1435 27.0435 24.2965 26.679 24.2965 26.2988V6.23216C24.2965 5.85202 24.1435 5.48744 23.8711 5.21864C23.5987 4.94984 23.2293 4.79883 22.8441 4.79883H8.31963ZM9.77208 8.38216C9.77208 8.19209 9.84859 8.0098 9.98478 7.8754C10.121 7.741 10.3057 7.66549 10.4983 7.66549H11.9507C12.1433 7.66549 12.3281 7.741 12.4643 7.8754C12.6005 8.0098 12.677 8.19209 12.677 8.38216V9.81549C12.677 10.0056 12.6005 10.1879 12.4643 10.3223C12.3281 10.4567 12.1433 10.5322 11.9507 10.5322H10.4983C10.3057 10.5322 10.121 10.4567 9.98478 10.3223C9.84859 10.1879 9.77208 10.0056 9.77208 9.81549V8.38216ZM14.1294 8.38216C14.1294 8.19209 14.2059 8.0098 14.3421 7.8754C14.4783 7.741 14.663 7.66549 14.8556 7.66549H16.3081C16.5007 7.66549 16.6854 7.741 16.8216 7.8754C16.9578 8.0098 17.0343 8.19209 17.0343 8.38216V9.81549C17.0343 10.0056 16.9578 10.1879 16.8216 10.3223C16.6854 10.4567 16.5007 10.5322 16.3081 10.5322H14.8556C14.663 10.5322 14.4783 10.4567 14.3421 10.3223C14.2059 10.1879 14.1294 10.0056 14.1294 9.81549V8.38216ZM19.213 7.66549H20.6654C20.858 7.66549 21.0427 7.741 21.1789 7.8754C21.3151 8.0098 21.3916 8.19209 21.3916 8.38216V9.81549C21.3916 10.0056 21.3151 10.1879 21.1789 10.3223C21.0427 10.4567 20.858 10.5322 20.6654 10.5322H19.213C19.0204 10.5322 18.8356 10.4567 18.6994 10.3223C18.5633 10.1879 18.4867 10.0056 18.4867 9.81549V8.38216C18.4867 8.19209 18.5633 8.0098 18.6994 7.8754C18.8356 7.741 19.0204 7.66549 19.213 7.66549ZM9.77208 12.6822C9.77208 12.4921 9.84859 12.3098 9.98478 12.1754C10.121 12.041 10.3057 11.9655 10.4983 11.9655H11.9507C12.1433 11.9655 12.3281 12.041 12.4643 12.1754C12.6005 12.3098 12.677 12.4921 12.677 12.6822V14.1155C12.677 14.3056 12.6005 14.4879 12.4643 14.6223C12.3281 14.7567 12.1433 14.8322 11.9507 14.8322H10.4983C10.3057 14.8322 10.121 14.7567 9.98478 14.6223C9.84859 14.4879 9.77208 14.3056 9.77208 14.1155V12.6822ZM14.8556 11.9655H16.3081C16.5007 11.9655 16.6854 12.041 16.8216 12.1754C16.9578 12.3098 17.0343 12.4921 17.0343 12.6822V14.1155C17.0343 14.3056 16.9578 14.4879 16.8216 14.6223C16.6854 14.7567 16.5007 14.8322 16.3081 14.8322H14.8556C14.663 14.8322 14.4783 14.7567 14.3421 14.6223C14.2059 14.4879 14.1294 14.3056 14.1294 14.1155V12.6822C14.1294 12.4921 14.2059 12.3098 14.3421 12.1754C14.4783 12.041 14.663 11.9655 14.8556 11.9655ZM18.4867 12.6822C18.4867 12.4921 18.5633 12.3098 18.6994 12.1754C18.8356 12.041 19.0204 11.9655 19.213 11.9655H20.6654C20.858 11.9655 21.0427 12.041 21.1789 12.1754C21.3151 12.3098 21.3916 12.4921 21.3916 12.6822V14.1155C21.3916 14.3056 21.3151 14.4879 21.1789 14.6223C21.0427 14.7567 20.858 14.8322 20.6654 14.8322H19.213C19.0204 14.8322 18.8356 14.7567 18.6994 14.6223C18.5633 14.4879 18.4867 14.3056 18.4867 14.1155V12.6822ZM10.4983 16.2655H11.9507C12.1433 16.2655 12.3281 16.341 12.4643 16.4754C12.6005 16.6098 12.677 16.7921 12.677 16.9822V18.4155C12.677 18.6056 12.6005 18.7879 12.4643 18.9223C12.3281 19.0567 12.1433 19.1322 11.9507 19.1322H10.4983C10.3057 19.1322 10.121 19.0567 9.98478 18.9223C9.84859 18.7879 9.77208 18.6056 9.77208 18.4155V16.9822C9.77208 16.7921 9.84859 16.6098 9.98478 16.4754C10.121 16.341 10.3057 16.2655 10.4983 16.2655ZM14.1294 16.9822C14.1294 16.7921 14.2059 16.6098 14.3421 16.4754C14.4783 16.341 14.663 16.2655 14.8556 16.2655H16.3081C16.5007 16.2655 16.6854 16.341 16.8216 16.4754C16.9578 16.6098 17.0343 16.7921 17.0343 16.9822V18.4155C17.0343 18.6056 16.9578 18.7879 16.8216 18.9223C16.6854 19.0567 16.5007 19.1322 16.3081 19.1322H14.8556C14.663 19.1322 14.4783 19.0567 14.3421 18.9223C14.2059 18.7879 14.1294 18.6056 14.1294 18.4155V16.9822ZM19.213 16.2655H20.6654C20.858 16.2655 21.0427 16.341 21.1789 16.4754C21.3151 16.6098 21.3916 16.7921 21.3916 16.9822V18.4155C21.3916 18.6056 21.3151 18.7879 21.1789 18.9223C21.0427 19.0567 20.858 19.1322 20.6654 19.1322H19.213C19.0204 19.1322 18.8356 19.0567 18.6994 18.9223C18.5633 18.7879 18.4867 18.6056 18.4867 18.4155V16.9822C18.4867 16.7921 18.5633 16.6098 18.6994 16.4754C18.8356 16.341 19.0204 16.2655 19.213 16.2655Z" fill="#020202"/>
  </g>
</svg>
