<svg xmlns="http://www.w3.org/2000/svg" viewBox="0 0 16 16" fill="none">
  <path d="M3.33333 7.33398L4.33333 4.33398H11.6667L12.6667 7.33398M11.6667 10.6673C11.4015 10.6673 11.1471 10.562 10.9596 10.3744C10.772 10.1869 10.6667 9.93253 10.6667 9.66732C10.6667 9.4021 10.772 9.14775 10.9596 8.96021C11.1471 8.77267 11.4015 8.66732 11.6667 8.66732C11.9319 8.66732 12.1862 8.77267 12.3738 8.96021C12.5613 9.14775 12.6667 9.4021 12.6667 9.66732C12.6667 9.93253 12.5613 10.1869 12.3738 10.3744C12.1862 10.562 11.9319 10.6673 11.6667 10.6673ZM4.33333 10.6673C4.06812 10.6673 3.81376 10.562 3.62623 10.3744C3.43869 10.1869 3.33333 9.93253 3.33333 9.66732C3.33333 9.4021 3.43869 9.14775 3.62623 8.96021C3.81376 8.77267 4.06812 8.66732 4.33333 8.66732C4.59855 8.66732 4.8529 8.77267 5.04044 8.96021C5.22798 9.14775 5.33333 9.4021 5.33333 9.66732C5.33333 9.93253 5.22798 10.1869 5.04044 10.3744C4.8529 10.562 4.59855 10.6673 4.33333 10.6673ZM12.6133 4.00065C12.48 3.61398 12.1067 3.33398 11.6667 3.33398H4.33333C3.89333 3.33398 3.52 3.61398 3.38667 4.00065L2 8.00065V13.334C2 13.5108 2.07024 13.6804 2.19526 13.8054C2.32029 13.9304 2.48986 14.0007 2.66667 14.0007H3.33333C3.51014 14.0007 3.67971 13.9304 3.80474 13.8054C3.92976 13.6804 4 13.5108 4 13.334V12.6673H12V13.334C12 13.5108 12.0702 13.6804 12.1953 13.8054C12.3203 13.9304 12.4899 14.0007 12.6667 14.0007H13.3333C13.5101 14.0007 13.6797 13.9304 13.8047 13.8054C13.9298 13.6804 14 13.5108 14 13.334V8.00065L12.6133 4.00065Z" fill="white"/>
</svg>
