<svg xmlns="http://www.w3.org/2000/svg" width="24" height="25" viewBox="0 0 24 25" fill="none">
  <path d="M7 9.625C8.65685 9.625 10 8.28185 10 6.625C10 4.96815 8.65685 3.625 7 3.625C5.34315 3.625 4 4.96815 4 6.625C4 8.28185 5.34315 9.625 7 9.625Z" stroke="white" stroke-width="1.5" stroke-linecap="round" stroke-linejoin="round"/>
  <path d="M10 13.625H5.818C5.1026 13.625 4.41076 13.8807 3.86727 14.3459C3.32377 14.8111 2.96441 15.4552 2.854 16.162L2.36 19.315C2.31521 19.6005 2.33281 19.8922 2.41159 20.1703C2.49037 20.4483 2.62846 20.7059 2.81634 20.9254C3.00423 21.145 3.23746 21.3212 3.49997 21.442C3.76248 21.5627 4.04804 21.6252 4.337 21.625H9" stroke="white" stroke-width="1.5" stroke-linecap="round" stroke-linejoin="round"/>
  <path d="M21.6409 19.316L21.1469 16.162C21.0365 15.4552 20.6771 14.8111 20.1336 14.3459C19.5901 13.8807 18.8983 13.625 18.1829 13.625H15.8189C15.1035 13.625 14.4117 13.8807 13.8682 14.3459C13.3247 14.8111 12.9653 15.4552 12.8549 16.162L12.3619 19.316C12.3173 19.6013 12.335 19.8929 12.4138 20.1707C12.4926 20.4485 12.6306 20.706 12.8184 20.9254C13.0061 21.1448 13.2392 21.3209 13.5015 21.4417C13.7638 21.5625 14.0491 21.625 14.3379 21.625H19.6639C19.9527 21.625 20.238 21.5625 20.5003 21.4417C20.7626 21.3209 20.9957 21.1448 21.1835 20.9254C21.3712 20.706 21.5092 20.4485 21.588 20.1707C21.6668 19.8929 21.6855 19.6013 21.6409 19.316Z" stroke="white" stroke-width="1.5" stroke-linecap="round" stroke-linejoin="round"/>
  <path d="M17 9.625C18.6569 9.625 20 8.28185 20 6.625C20 4.96815 18.6569 3.625 17 3.625C15.3431 3.625 14 4.96815 14 6.625C14 8.28185 15.3431 9.625 17 9.625Z" stroke="white" stroke-width="1.5" stroke-linecap="round" stroke-linejoin="round"/>
</svg>
