<svg xmlns="http://www.w3.org/2000/svg" width="24" height="25" viewBox="0 0 24 25" fill="none">
  <path d="M11.0746 3.008C11.3946 2.164 12.6056 2.164 12.9266 3.008L14.9966 8.742C15.1416 9.122 15.5106 9.375 15.9226 9.375H21.0096C21.9496 9.375 22.3596 10.545 21.6206 11.118L18.0006 14.375C17.8384 14.4997 17.7199 14.6725 17.6621 14.8687C17.6042 15.0648 17.61 15.2743 17.6786 15.467L19.0006 21.07C19.3226 21.97 18.2806 22.743 17.4926 22.189L12.5756 19.069C12.4072 18.9507 12.2064 18.8872 12.0006 18.8872C11.7948 18.8872 11.594 18.9507 11.4256 19.069L6.50856 22.189C5.72156 22.743 4.67856 21.969 5.00056 21.07L6.32257 15.467C6.39114 15.2743 6.39692 15.0648 6.33907 14.8687C6.28122 14.6725 6.16272 14.4997 6.00057 14.375L2.38056 11.118C1.64056 10.545 2.05256 9.375 2.99056 9.375H8.07756C8.27786 9.37567 8.47363 9.3155 8.63898 9.20247C8.80433 9.08944 8.93147 8.92887 9.00357 8.742L11.0736 3.008H11.0746Z" stroke="white" stroke-width="1.5" stroke-linecap="round" stroke-linejoin="round"/>
</svg>
