<svg viewBox="0 0 191 16" xmlns="http://www.w3.org/2000/svg">
    <path d="M1.22454 3.28727H3.85283L4.43524 0.269531H8.54194L7.95954 3.28727H10.2593L10.8268 0.269531H14.9335L14.3511 3.28727H16.3969L16.3073 6.54404H13.7089L13.1564 9.38251H15.2471L15.1575 12.6542H12.5142L11.9318 15.7018H7.82514L8.40754 12.6542H6.10779L5.52538 15.7018H1.44855L2.03095 12.6542H0L0.0896008 9.38251H2.65816L3.2107 6.54404H1.14988L1.23948 3.28727H1.22454ZM6.76486 9.39745H9.06461L9.61715 6.55898H7.3174L6.76486 9.39745Z" fill="#CF000C"/>
    <path d="M39.4828 0.269531L40.9314 6.46934L44.9485 0.269531H49.309L39.438 15.7018H35.0625L38.1089 10.9213L35.1073 0.269531H39.4828Z" />
    <path d="M50.639 0.269531H56.6423C60.0322 0.269531 61.6002 1.4348 61.6002 3.51136C61.6002 5.37877 60.5399 7.03704 58.8674 7.61967C60.2413 8.02303 61.0477 9.05385 61.0477 10.4283C61.0477 10.6673 61.0327 10.9063 60.9879 11.1603C60.4653 13.8792 58.4492 15.7317 53.9991 15.7317H47.6523L50.639 0.269531ZM56.7468 10.503C56.7468 9.72611 56.1794 9.42733 54.9548 9.42733H53.118L52.5505 12.4003H54.3873C55.7761 12.4003 56.478 12.0118 56.702 10.9063C56.717 10.7719 56.7468 10.6374 56.7468 10.503ZM57.389 4.52723C57.389 3.82509 56.8514 3.601 55.7761 3.601H54.2529L53.7452 6.23032H55.2684C56.5228 6.23032 57.15 5.87177 57.3442 4.90072C57.3591 4.76626 57.389 4.63181 57.389 4.52723Z" />
    <path d="M74.8622 0.269531L76.9529 15.7168H72.4131L72.1443 13.1622H67.0072L65.7976 15.7168H61.2578L69.3517 0.269531H74.8622ZM68.7096 9.63648H71.8456L71.3379 4.21351L68.7096 9.63648Z" />
    <path d="M85.6146 10.727H84.1212L83.1655 15.7168H78.8945L81.8962 0.269531H87.6754C91.0205 0.269531 93.1859 1.56925 93.1859 4.28821C93.1859 4.66169 93.1411 5.06505 93.0515 5.49829C92.3645 9.02397 89.4525 10.727 85.6146 10.727ZM88.7954 4.94553C88.7954 3.97448 88.0935 3.57112 86.869 3.57112H85.5101L84.7783 7.41052H86.1522C87.5858 7.41052 88.4669 6.85777 88.7357 5.48335C88.7805 5.28914 88.7954 5.10987 88.7954 4.9306" />
    <path d="M114.615 3.75039H110.344L111.016 0.269531H123.859L123.172 3.75039H118.901L116.571 15.7018H112.3L114.615 3.75039Z" />
    <path d="M129.517 10.727H128.024L127.068 15.7168H122.797L125.798 0.269531H131.578C134.923 0.269531 137.088 1.56925 137.088 4.28821C137.088 4.66169 137.043 5.06505 136.954 5.49829C136.267 9.02397 133.355 10.727 129.517 10.727ZM132.698 4.94553C132.698 3.97448 131.996 3.57112 130.771 3.57112H129.412L128.681 7.41052H130.055C131.488 7.41052 132.369 6.85777 132.638 5.48335C132.683 5.28914 132.698 5.10987 132.698 4.9306" />
    <path d="M137.805 10.0093C137.805 4.21288 141.911 0 147.078 0C151.051 0 153.231 2.36041 153.231 6.0056C153.231 11.7871 149.109 15.9701 143.972 15.9701C140.03 15.9701 137.82 13.6247 137.82 10.0093M148.87 6.52848C148.87 4.64612 147.974 3.52568 146.406 3.52568C144.241 3.52568 142.225 5.88609 142.225 9.48646C142.225 11.3389 143.106 12.4444 144.674 12.4444C146.795 12.4444 148.885 10.1289 148.885 6.52848" />
    <path d="M156.951 0.269531H161.117L159.49 8.66542L166.06 0.269531H170.257L167.255 15.7018H163.089L164.716 7.27607L158.146 15.7018H153.949L156.951 0.269531Z" />
    <path d="M175.783 3.75039H171.512L172.199 0.269531H185.027L184.34 3.75039H180.069L177.754 15.7018H173.468L175.783 3.75039Z" />
    <path d="M103.415 0C106.67 0 109.866 1.7479 109.657 5.94585H105.864C105.64 4.16807 104.386 3.70495 102.698 3.70495C100.055 3.70495 98.3824 5.93091 97.8896 8.39589C97.4715 10.6368 98.8453 12.2801 101.07 12.2801C102.773 12.2801 104.251 11.4883 104.998 9.78525H108.94C107.492 14.2521 103.699 16.0149 100.369 16.0149C96.3514 16.0149 92.8719 13.281 93.8277 7.94771C94.9178 2.47993 99.2187 0.0149393 103.4 0.0149393" />
    <path d="M28.4651 0C31.7206 0 34.9163 1.7479 34.7073 5.94585H30.9142C30.6902 4.16807 29.4357 3.70495 27.7483 3.70495C25.105 3.70495 23.4325 5.93091 22.9397 8.39589C22.5215 10.6368 23.8954 12.2801 26.1205 12.2801C27.8229 12.2801 29.3013 11.4883 30.048 9.78525H33.9904C32.5419 14.2521 28.7488 16.0149 25.4037 16.0149C21.3866 16.0149 17.9071 13.281 18.8628 7.94771C19.953 2.47993 24.2538 0.0149393 28.4352 0.0149393" />
    <path d="M187.528 15.9078C188.985 15.9078 190.166 14.7287 190.166 13.2742C190.166 11.8197 188.985 10.6406 187.528 10.6406C186.072 10.6406 184.891 11.8197 184.891 13.2742C184.891 14.7287 186.072 15.9078 187.528 15.9078Z" fill="#CF000C"/>
</svg>
