<svg xmlns="http://www.w3.org/2000/svg" viewBox="0 0 214 18" >
    <path d="M1.37761 3.69574H4.33444L4.98964 0.300781H9.60968L8.95448 3.69574H11.5417L12.1801 0.300781H16.8001L16.1449 3.69574H18.4466L18.3458 7.3596H15.4225L14.8009 10.5529H17.153L17.0522 14.2336H14.0785L13.4233 17.6621H8.80328L9.45848 14.2336H6.87126L6.21605 17.6621H1.62961L2.28482 14.2336H0L0.100801 10.5529H2.99043L3.61203 7.3596H1.29361L1.39441 3.69574H1.37761ZM7.61047 10.5697H10.1977L10.8193 7.37641H8.23207L7.61047 10.5697Z" />
    <path d="M44.4182 0.304688L46.0478 7.27948L50.567 0.304688H55.4727L44.3678 17.666H39.4453L42.8725 12.2879L39.4957 0.304688H44.4182Z" />
    <path d="M56.9694 0.300781H63.7231C67.5367 0.300781 69.3007 1.61171 69.3007 3.94784C69.3007 6.04868 68.1079 7.91423 66.2263 8.56969C67.7719 9.02347 68.6791 10.1831 68.6791 11.7294C68.6791 11.9983 68.6623 12.2672 68.6119 12.5529C68.0239 15.6117 65.7559 17.6957 60.7494 17.6957H53.6094L56.9694 0.300781ZM63.8407 11.8134C63.8407 10.9394 63.2023 10.6033 61.8246 10.6033H59.7582L59.1198 13.9478H61.1862C62.7487 13.9478 63.5383 13.5109 63.7903 12.2672C63.8071 12.1159 63.8407 11.9646 63.8407 11.8134ZM64.5631 5.0907C64.5631 4.30078 63.9583 4.04868 62.7487 4.04868H61.035L60.4638 7.00666H62.1774C63.5887 7.00666 64.2943 6.6033 64.5127 5.51086C64.5295 5.3596 64.5631 5.20834 64.5631 5.0907Z" />
    <path d="M84.219 0.300781L86.571 17.6789H81.4638L81.1614 14.805H75.3821L74.0213 17.6789H68.9141L78.0197 0.300781H84.219ZM77.2973 10.8386H80.8254L80.2542 4.73776L77.2973 10.8386Z" />
    <path d="M96.3101 12.0694H94.6301L93.5548 17.6828H88.75L92.1268 0.304688H98.6285C102.392 0.304688 104.828 1.76687 104.828 4.8257C104.828 5.24586 104.777 5.69965 104.677 6.18704C103.904 10.1534 100.628 12.0694 96.3101 12.0694ZM99.8885 5.56519C99.8885 4.47275 99.0989 4.01897 97.7213 4.01897H96.1925L95.3693 8.3383H96.9149C98.5277 8.3383 99.5189 7.71645 99.8213 6.17023C99.8717 5.95175 99.8885 5.75007 99.8885 5.54838" />
    <path d="M128.945 4.22065H124.141L124.897 0.304688H139.345L138.572 4.22065H133.767L131.146 17.666H126.341L128.945 4.22065Z" />
    <path d="M145.709 12.0694H144.028L142.953 17.6828H138.148L141.525 0.304688H148.027C151.79 0.304688 154.226 1.76687 154.226 4.8257C154.226 5.24586 154.176 5.69965 154.075 6.18704C153.302 10.1534 150.026 12.0694 145.709 12.0694ZM149.287 5.56519C149.287 4.47275 148.497 4.01897 147.12 4.01897H145.591L144.768 8.3383H146.313C147.926 8.3383 148.917 7.71645 149.22 6.17023C149.27 5.95175 149.287 5.75007 149.287 5.54838" />
    <path d="M155.031 11.2605C155.031 4.7395 159.651 0 165.464 0C169.933 0 172.386 2.65546 172.386 6.7563C172.386 13.2605 167.749 17.9664 161.97 17.9664C157.534 17.9664 155.048 15.3277 155.048 11.2605M167.48 7.34454C167.48 5.22689 166.472 3.96639 164.708 3.96639C162.272 3.96639 160.004 6.62185 160.004 10.6723C160.004 12.7563 160.995 14 162.759 14C165.145 14 167.497 11.395 167.497 7.34454" />
    <path d="M176.564 0.304688H181.252L179.42 9.75007L186.812 0.304688H191.533L188.156 17.666H183.469L185.3 8.18704L177.908 17.666H173.188L176.564 0.304688Z" />
    <path d="M197.758 4.22065H192.953L193.726 0.304688H208.157L207.384 4.22065H202.58L199.976 17.666H195.154L197.758 4.22065Z" />
    <path d="M116.34 0C120.003 0 123.598 1.96639 123.363 6.68908H119.096C118.844 4.68908 117.432 4.16807 115.534 4.16807C112.56 4.16807 110.679 6.67227 110.124 9.44538C109.654 11.9664 111.2 13.8151 113.703 13.8151C115.618 13.8151 117.281 12.9244 118.121 11.0084H122.556C120.927 16.0336 116.66 18.0168 112.913 18.0168C108.394 18.0168 104.479 14.9412 105.555 8.94118C106.781 2.78992 111.62 0.0168067 116.324 0.0168067" />
    <path d="M32.0211 0C35.6835 0 39.2788 1.96639 39.0436 6.68908H34.7763C34.5243 4.68908 33.1131 4.16807 31.2147 4.16807C28.2411 4.16807 26.3594 6.67227 25.805 9.44538C25.3346 11.9664 26.8802 13.8151 29.3835 13.8151C31.2987 13.8151 32.9619 12.9244 33.8019 11.0084H38.2371C36.6075 16.0336 32.3403 18.0168 28.5771 18.0168C24.0578 18.0168 20.1434 14.9412 21.2186 8.94118C22.445 2.78992 27.2835 0.0168067 31.9875 0.0168067" />
    <path d="M210.968 17.8943C212.606 17.8943 213.935 16.5678 213.935 14.9315C213.935 13.2952 212.606 11.9688 210.968 11.9688C209.329 11.9688 208 13.2952 208 14.9315C208 16.5678 209.329 17.8943 210.968 17.8943Z" />
</svg>
