<svg xmlns="http://www.w3.org/2000/svg" viewBox="0 0 24 24" fill="none">
  <path d="M12.9269 12.869C12.9269 12.6849 12.8531 12.508 12.7214 12.3773L12.8095 12.2886M12.9269 12.869L11.6379 12.2886C11.7933 12.1347 12.004 12.0483 12.2237 12.0483C12.4434 12.0483 12.654 12.1347 12.8095 12.2886M12.9269 12.869C12.9269 13.0532 12.8532 13.2301 12.7215 13.3607M12.9269 12.869L12.7215 13.3607M12.8095 12.2886L12.7215 12.3774C12.5896 12.2469 12.4106 12.1733 12.2237 12.1733C12.0368 12.1733 11.8577 12.2469 11.7258 12.3774L3.43802 20.59C3.31475 20.7219 3.24786 20.8958 3.25105 21.0751C3.25426 21.2552 3.32786 21.4272 3.45672 21.5549C3.58561 21.6826 3.75973 21.756 3.94245 21.7592C4.12447 21.7623 4.30045 21.6957 4.43365 21.5734L12.7214 13.3608L12.7215 13.3607M12.8095 12.2886C12.9647 12.4426 13.0519 12.6514 13.0519 12.869C13.0519 13.0867 12.9647 13.2955 12.8095 13.4495L12.7215 13.3607M15.7796 0.697273L15.7796 0.697342L15.7834 0.700036C15.7974 0.709966 15.8108 0.720743 15.8235 0.732306L22.2643 7.11365L22.3523 7.02486L22.2643 7.11366C22.6554 7.50101 22.8749 8.02617 22.875 8.57352V19.7143C22.875 20.2617 22.6556 20.787 22.2646 21.1744C21.8735 21.5619 21.343 21.7798 20.7895 21.7798H15.0841C15.2655 21.3483 15.3709 20.879 15.3862 20.3869H20.7895C20.9688 20.3869 21.1411 20.3163 21.2682 20.1903C21.3954 20.0643 21.4671 19.893 21.4671 19.7143V8.7619V8.6369H21.3421H16.3684C15.8149 8.6369 15.2844 8.41902 14.8933 8.03154C14.5023 7.6441 14.2829 7.11886 14.2829 6.57143V1.64286V1.51786H14.1579H7.52632C7.34696 1.51786 7.17473 1.58845 7.04756 1.71446C6.92036 1.84051 6.84868 2.01172 6.84868 2.19048V10.3137C6.41771 10.0515 5.93988 9.87314 5.44079 9.78845V2.19048C5.44079 1.64305 5.66023 1.11781 6.05122 0.730366C6.44225 0.342886 6.97283 0.125 7.52632 0.125H14.3469C14.3709 0.125451 14.3949 0.127482 14.4187 0.131077C14.4442 0.135405 14.47 0.138407 14.4958 0.140074L14.4958 0.14008L14.497 0.140146C14.7198 0.152372 14.9392 0.200377 15.1464 0.282267C15.199 0.304322 15.2509 0.333849 15.3099 0.367401L15.3147 0.370138L15.3152 0.370412L15.37 0.4019L15.3699 0.402106L15.3768 0.405529L15.4298 0.431815L15.4298 0.431868L15.4333 0.433466C15.4577 0.444655 15.4814 0.457467 15.504 0.471812C15.5836 0.528222 15.6593 0.589908 15.7304 0.656444L15.7304 0.656471L15.7327 0.658504C15.7478 0.672002 15.7635 0.684934 15.7796 0.697273ZM15.9038 2.78184L15.6908 2.57072V2.87062V6.57143C15.6908 6.75019 15.7625 6.92139 15.8897 7.04744C16.0168 7.17346 16.1891 7.24405 16.3684 7.24405H20.102H20.4057L20.19 7.03027L15.9038 2.78184ZM7.40132 13.6905C7.40132 14.3831 7.12365 15.0477 6.62902 15.5378C6.13436 16.028 5.46321 16.3036 4.76316 16.3036C4.06311 16.3036 3.39196 16.028 2.89729 15.5378C2.40267 15.0477 2.125 14.3831 2.125 13.6905C2.125 12.9978 2.40267 12.3333 2.89729 11.8431C3.39196 11.353 4.06311 11.0774 4.76316 11.0774C5.46321 11.0774 6.13436 11.353 6.62902 11.8431C7.12365 12.3333 7.40132 12.9978 7.40132 13.6905ZM5.99342 13.6905C5.99342 13.3665 5.86352 13.056 5.63268 12.8272C5.40188 12.5985 5.08908 12.4702 4.76316 12.4702C4.43724 12.4702 4.12444 12.5985 3.89363 12.8272C3.66279 13.056 3.53289 13.3665 3.53289 13.6905C3.53289 14.0145 3.66279 14.325 3.89363 14.5537C4.12444 14.7824 4.43724 14.9107 4.76316 14.9107C5.08908 14.9107 5.40188 14.7824 5.63268 14.5537C5.86352 14.325 5.99342 14.0145 5.99342 13.6905ZM14.0329 20.2619C14.0329 20.9546 13.7552 21.6191 13.2606 22.1092C12.7659 22.5994 12.0948 22.875 11.3947 22.875C10.6947 22.875 10.0235 22.5994 9.52887 22.1092C9.03425 21.6191 8.75658 20.9546 8.75658 20.2619C8.75658 19.5692 9.03425 18.9047 9.52887 18.4146C10.0235 17.9244 10.6947 17.6488 11.3947 17.6488C12.0948 17.6488 12.7659 17.9244 13.2606 18.4146C13.7552 18.9047 14.0329 19.5692 14.0329 20.2619ZM12.625 20.2619C12.625 19.9379 12.4951 19.6274 12.2643 19.3987C12.0335 19.17 11.7207 19.0417 11.3947 19.0417C11.0688 19.0417 10.756 19.17 10.5252 19.3987C10.2944 19.6274 10.1645 19.9379 10.1645 20.2619C10.1645 20.5859 10.2944 20.8964 10.5252 21.1251C10.756 21.3539 11.0688 21.4821 11.3947 21.4821C11.7207 21.4821 12.0335 21.3539 12.2643 21.1251C12.4951 20.8964 12.625 20.5859 12.625 20.2619Z" fill="#181823" stroke="white" stroke-width="0.25"/>
</svg>
