<svg xmlns="http://www.w3.org/2000/svg" viewBox="0 0 15 14" >
  <path d="M7.75 0.875C6.47409 0.876447 5.25085 1.38394 4.34865 2.28615C3.44644 3.18835 2.93895 4.41159 2.9375 5.6875C2.9375 9.80547 7.3125 12.9155 7.49898 13.0457C7.57255 13.0972 7.66018 13.1249 7.75 13.1249C7.83982 13.1249 7.92745 13.0972 8.00102 13.0457C8.1875 12.9155 12.5625 9.80547 12.5625 5.6875C12.5611 4.41159 12.0536 3.18835 11.1514 2.28615C10.2491 1.38394 9.02591 0.876447 7.75 0.875ZM7.75 3.9375C8.09612 3.9375 8.43446 4.04014 8.72225 4.23243C9.01003 4.42472 9.23434 4.69803 9.36679 5.0178C9.49924 5.33757 9.5339 5.68944 9.46637 6.02891C9.39885 6.36837 9.23218 6.68019 8.98744 6.92494C8.74269 7.16968 8.43087 7.33635 8.09141 7.40387C7.75194 7.4714 7.40007 7.43674 7.0803 7.30429C6.76053 7.17183 6.48722 6.94753 6.29493 6.65975C6.10264 6.37196 6 6.03362 6 5.6875C6 5.22337 6.18437 4.77825 6.51256 4.45006C6.84075 4.12187 7.28587 3.9375 7.75 3.9375Z" />
</svg>
