<svg xmlns="http://www.w3.org/2000/svg"  viewBox="0 0 16 16" fill="none">
    <path d="M6.6951 2.39063V6.69559H2.39014C2.04392 6.69559 1.71188 6.83312 1.46706 7.07794L1.46706 7.07794C1.22224 7.32276 1.08471 7.6548 1.08471 8.00102C1.08471 8.34724 1.22224 8.67929 1.46706 8.9241C1.71188 9.16892 2.04392 9.30646 2.39014 9.30646H6.6951V13.6114C6.6951 13.9576 6.83263 14.2897 7.07745 14.5345C7.32227 14.7793 7.65431 14.9168 8.00053 14.9168C8.34676 14.9168 8.6788 14.7793 8.92361 14.5345C9.16843 14.2897 9.30597 13.9576 9.30597 13.6114V9.30646H13.6109C13.9571 9.30646 14.2892 9.16892 14.534 8.9241C14.7788 8.67929 14.9164 8.34724 14.9164 8.00102C14.9164 7.6548 14.7788 7.32276 14.534 7.07794C14.2892 6.83312 13.9571 6.69559 13.6109 6.69559H9.30597V2.39063C9.30597 2.04441 9.16843 1.71237 8.92361 1.46755C8.6788 1.22273 8.34676 1.0852 8.00053 1.0852C7.65431 1.0852 7.32227 1.22273 7.07745 1.46755C6.83263 1.71237 6.6951 2.04441 6.6951 2.39063Z" fill="white" stroke="#CF000C" stroke-width="0.740741"/>
</svg>
