<svg xmlns="http://www.w3.org/2000/svg" viewBox="0 0 32 32" fill="none">
  <path opacity="0.3" d="M29.4651 22.9611C29.7593 23.0567 30 22.8808 30 22.5699V20.5947C30 20.2838 29.7823 19.8994 29.5168 19.74L19.2332 13.5809C18.9677 13.4221 18.75 13.0371 18.75 12.7267V5.82655C18.75 5.51563 18.6555 5.02551 18.5396 4.73663C18.5396 4.73663 17.9259 3.20577 16.8521 3.03505C16.7373 3.0132 16.6208 3.00147 16.5039 3H16.4983C16.3636 3.00047 16.2293 3.0141 16.0972 3.0407L15.9757 3.06784L15.7913 3.1255C14.898 3.42511 14.4379 4.72816 14.4379 4.72816C14.3238 5.08351 14.2606 5.45333 14.25 5.82655V12.7267C14.25 13.0377 14.0323 13.4221 13.7668 13.5815L3.48319 19.74C3.21769 19.8994 3 20.2838 3 20.5947V22.5699C3 22.8808 3.24075 23.0567 3.53494 22.9606L13.7151 19.6394C14.0092 19.5438 14.25 19.7196 14.25 20.0306V25.4197C14.25 25.7306 14.0475 26.1382 13.8 26.3247L12.45 27.3434C12.2025 27.53 12 27.9376 12 28.2485V29.5696C12 29.8805 12.2436 30.0648 12.5406 29.9789L15.9577 28.9924C16.2547 28.9065 16.7419 28.9065 17.0389 28.9924L20.4594 29.9789C20.7564 30.0648 21 29.8805 21 29.5696V28.2479C21 27.937 20.7975 27.5294 20.55 27.3428L19.2 26.3242C18.9531 26.1376 18.75 25.73 18.75 25.4191V20.03C18.75 19.7191 18.9908 19.5433 19.2849 19.6394L29.4651 22.9611Z" fill="#4D8EBD"/>
</svg>
