<svg xmlns="http://www.w3.org/2000/svg" viewBox="0 0 16 16" fill="none">
    <path d="M10.625 14.4417C9.93334 14.4417 9.37501 13.7417 9.37501 12.875C9.37501 12.0167 9.93334 11.3167 10.625 11.3167C11.3167 11.3167 11.875 12.0167 11.875 12.875C11.875 13.7417 11.3167 14.4417 10.625 14.4417ZM7.50001 7.875C6.46668 7.875 5.62501 7.175 5.62501 6.31667C5.62501 5.45 6.46668 4.75 7.50001 4.75C8.53334 4.75 9.37501 5.45 9.37501 6.31667C9.37501 7.175 8.53334 7.875 7.50001 7.875ZM4.37501 14.4417C3.68334 14.4417 3.12501 13.7417 3.12501 12.875C3.12501 12.0167 3.68334 11.3167 4.37501 11.3167C5.06668 11.3167 5.62501 12.0167 5.62501 12.875C5.62501 13.7417 5.06668 14.4417 4.37501 14.4417ZM7.50001 5.375C7.84168 5.375 8.12501 5.65833 8.12501 6C8.12501 6.34167 7.84168 6.625 7.50001 6.625C7.15834 6.625 6.87501 6.34167 6.87501 6C6.87501 5.65833 7.15834 5.375 7.50001 5.375ZM13.125 8.5C12.8583 8.5 12.6 8.55833 12.3667 8.66667C11.9667 8.15833 11.425 7.725 10.775 7.39167C11.25 6.725 11.5333 5.91667 11.5333 5.04167V4.99167C12.4417 4.8 13.125 3.99167 13.125 3.01667C13.125 1.90833 12.2167 1 11.1083 1C10.5333 1 10 1.24167 9.65001 1.625C9.0072 1.21682 8.26147 1.00006 7.50001 1.00006C6.73855 1.00006 5.99283 1.21682 5.35001 1.625C5.00001 1.24167 4.46668 1 3.89168 1C2.78334 1 1.87501 1.90833 1.87501 3.01667C1.87501 3.98333 2.55834 4.79167 3.45834 4.99167V5.04167C3.45834 5.91667 3.75001 6.73333 4.21668 7.39167C3.57501 7.725 3.03334 8.15833 2.63334 8.66667C2.34856 8.53838 2.03615 8.48361 1.72471 8.50736C1.41328 8.53111 1.11278 8.63263 0.850749 8.80262C0.588718 8.97261 0.373531 9.20563 0.224899 9.48034C0.0762674 9.75505 -0.0010564 10.0627 1.09007e-05 10.375C1.09007e-05 11.4167 0.833344 12.25 1.87501 12.25H1.92501C1.89168 12.45 1.87501 12.6667 1.87501 12.875C1.87501 14.6 2.99168 16 4.37501 16C5.21668 16 5.95834 15.475 6.41668 14.675C6.76668 14.725 7.12501 14.75 7.50001 14.75C7.87501 14.75 8.23334 14.725 8.58334 14.675C9.04168 15.475 9.78334 16 10.625 16C12.0083 16 13.125 14.6 13.125 12.875C13.125 12.6667 13.1083 12.45 13.075 12.25H13.125C14.1667 12.25 15 11.4167 15 10.375C15 9.33333 14.1667 8.5 13.125 8.5Z" fill="white"/>
</svg>
