<svg xmlns="http://www.w3.org/2000/svg" viewBox="0 0 16 16">
  <path d="M14.5646 10.6515V6.17656L8.78708 9.49486C8.57177 9.62127 8.3445 9.68447 8.10526 9.68447C7.86603 9.68447 7.63876 9.62127 7.42345 9.49486L1.35886 6.0059C1.22728 5.93006 1.13446 5.83525 1.08039 5.72148C1.02632 5.60771 0.999528 5.4813 1.00001 5.34224C1.00001 5.20319 1.02704 5.07678 1.08111 4.96301C1.13517 4.84924 1.22776 4.75443 1.35886 4.67858L7.42345 1.18963C7.5311 1.12642 7.64187 1.07889 7.75574 1.04704C7.86962 1.01518 7.98612 0.999506 8.10526 1.00001C8.22488 1.00001 8.34163 1.01594 8.4555 1.0478C8.56938 1.07965 8.6799 1.12693 8.78708 1.18963L15.6232 5.13366C15.7428 5.19687 15.8356 5.28864 15.9017 5.40899C15.9677 5.52933 16.0005 5.65878 16 5.79732V10.6515C16 10.8664 15.9311 11.0467 15.7933 11.1923C15.6555 11.3379 15.4852 11.4105 15.2823 11.41C15.0789 11.41 14.9086 11.3372 14.7713 11.1915C14.634 11.0459 14.5651 10.8659 14.5646 10.6515ZM7.42345 14.0457L3.83493 11.9978C3.5957 11.8587 3.41029 11.6691 3.27871 11.4289C3.14713 11.1888 3.08134 10.9296 3.08134 10.6515V7.76934L7.42345 10.2533C7.63876 10.3797 7.86603 10.4429 8.10526 10.4429C8.3445 10.4429 8.57177 10.3797 8.78708 10.2533L13.1292 7.76934V10.6515C13.1292 10.9296 13.0634 11.1888 12.9318 11.4289C12.8002 11.6691 12.6148 11.8587 12.3756 11.9978L8.78708 14.0457C8.67943 14.1089 8.5689 14.1564 8.4555 14.1883C8.34211 14.2201 8.22536 14.2358 8.10526 14.2353C7.98565 14.2353 7.8689 14.2196 7.75502 14.1883C7.64115 14.1569 7.53062 14.1094 7.42345 14.0457Z" />
</svg>
