<svg xmlns="http://www.w3.org/2000/svg" viewBox="0 0 16 16">
  <path d="M10.8594 10.7148C10.3527 10.7148 9.89938 10.9148 9.55271 11.2281L4.79938 8.46146C4.83271 8.30812 4.85938 8.15479 4.85938 7.99479C4.85938 7.83479 4.83271 7.68146 4.79938 7.52812L9.49938 4.78812C9.85938 5.12146 10.3327 5.32812 10.8594 5.32812C11.966 5.32812 12.8594 4.43479 12.8594 3.32812C12.8594 2.22146 11.966 1.32812 10.8594 1.32812C9.75271 1.32812 8.85938 2.22146 8.85938 3.32812C8.85938 3.48812 8.88604 3.64146 8.91938 3.79479L4.21938 6.53479C3.85938 6.20146 3.38604 5.99479 2.85938 5.99479C1.75271 5.99479 0.859375 6.88812 0.859375 7.99479C0.859375 9.10146 1.75271 9.99479 2.85938 9.99479C3.38604 9.99479 3.85938 9.78812 4.21938 9.45479L8.96604 12.2281C8.93271 12.3681 8.91271 12.5148 8.91271 12.6615C8.91271 13.7348 9.78604 14.6081 10.8594 14.6081C11.9327 14.6081 12.806 13.7348 12.806 12.6615C12.806 11.5881 11.9327 10.7148 10.8594 10.7148Z" />
</svg>
