<svg xmlns="http://www.w3.org/2000/svg" viewBox="0 0 16 16">
  <path fill-rule="evenodd" clip-rule="evenodd" d="M6.74708 14.6582C6.75167 14.7718 6.75334 14.8856 6.75207 14.9993C5.75412 14.8029 4.80982 14.3957 3.9828 13.8036C3.15578 13.2116 2.46524 12.4492 1.95768 11.5678C1.44814 10.6875 1.13315 9.70826 1.03394 8.69599C0.934735 7.68372 1.05361 6.66195 1.38255 5.69949C1.44106 5.73231 1.56308 5.80296 1.67654 5.87431C2.00138 6.08305 2.31221 6.31283 2.60702 6.56218C3.36696 7.20082 4.34596 8.21193 5.20223 9.6947C6.05778 11.1768 6.44453 12.5304 6.6165 13.5072C6.68512 13.8876 6.72874 14.2721 6.74708 14.6582ZM9.5271 1.34179C9.52282 1.22792 9.5214 1.11395 9.52282 1C10.5208 1.19637 11.4651 1.60432 12.2921 2.19636C13.1191 2.78841 13.8097 3.55081 14.3172 4.43221C14.8267 5.3124 15.1416 6.29153 15.2408 7.30366C15.34 8.3158 15.2212 9.33744 14.8923 10.2998C14.8338 10.2677 14.7118 10.197 14.5984 10.125C14.3722 9.98084 14.0475 9.75607 13.6679 9.4371C12.9079 8.79847 11.9289 7.78736 11.0727 6.3053C10.2171 4.82253 9.83036 3.46962 9.65839 2.49205C9.57205 2.00326 9.53923 1.60938 9.5271 1.34179ZM13.9196 10.971C14.0198 11.035 14.1218 11.0962 14.2254 11.1544L14.3556 11.23C13.7416 12.4141 12.8005 13.397 11.6441 14.0619C10.4902 14.7302 9.16865 15.0533 7.83651 14.9928V14.8423C7.83721 14.7583 7.83721 14.638 7.83021 14.4861C7.81691 14.1816 7.78051 13.749 7.68742 13.2192C7.49984 12.1609 7.08479 10.7135 6.17418 9.13722C5.26427 7.56029 4.21858 6.4775 3.39547 5.78597C2.98391 5.4402 2.62765 5.19243 2.37077 5.02865C2.24199 4.94745 2.1384 4.88726 2.0649 4.84526L1.93262 4.77317C2.54635 3.58769 3.48777 2.60352 4.64484 1.93776C5.80109 1.26824 7.12549 0.945337 8.46014 1.00756C8.45989 1.01586 8.4591 1.03221 8.45815 1.0517C8.45646 1.08643 8.45429 1.13114 8.45385 1.15804C8.45265 1.2766 8.45475 1.39517 8.46014 1.51361C8.4802 1.93858 8.52813 2.36178 8.60363 2.78048C8.79051 3.83947 9.20557 5.28622 10.1155 6.86316C11.0261 8.43939 12.0718 9.52288 12.8949 10.2137C13.2195 10.4883 13.5618 10.7413 13.9196 10.971Z" />
</svg>
