<svg xmlns="http://www.w3.org/2000/svg" viewBox="0 0 33 22" fill="none">
  <path fill-rule="evenodd" clip-rule="evenodd" d="M20.5878 0.953247C20.3251 2.92327 20.5878 5.86441 22.3148 8.27279C23.1427 9.42734 24.275 10.4154 25.7674 11.1116C24.275 11.8078 23.1427 12.7958 22.3148 13.9504C20.5878 16.3588 20.3251 19.2999 20.5878 21.2699L22.7118 20.9867C22.4983 19.3853 22.7356 17.0408 24.0562 15.1991C25.1495 13.6745 27.0914 12.348 30.5337 12.1837C31.0124 12.2039 31.5112 12.2044 32.0305 12.1839C32.1199 12.1879 32.2101 12.1926 32.3012 12.1979L32.3027 12.1714C32.344 12.1692 32.3855 12.1669 32.427 12.1644L32.3651 11.1116L32.427 10.0588C32.3855 10.0563 32.344 10.054 32.3027 10.0518L32.3012 10.0253C32.2101 10.0306 32.1199 10.0353 32.0305 10.0392C31.5112 10.0188 31.0124 10.0193 30.5337 10.0395C27.0914 9.87517 25.1495 8.54871 24.0562 7.02405C22.7356 5.18243 22.4983 2.83786 22.7118 1.23646L20.5878 0.953247Z" fill="white"/>
  <path d="M32.2855 11.0948H0.856934" stroke="white" stroke-width="2.14286"/>
</svg>
