<svg xmlns="http://www.w3.org/2000/svg" viewBox="0 0 32 32" fill="none">
  <g opacity="0.2">
    <path d="M20.5101 25.3516C19.4526 25.3516 18.599 24.2814 18.599 22.9563C18.599 21.644 19.4526 20.5738 20.5101 20.5738C21.5676 20.5738 22.4212 21.644 22.4212 22.9563C22.4212 24.2814 21.5676 25.3516 20.5101 25.3516ZM15.7323 15.3119C14.1524 15.3119 12.8656 14.2417 12.8656 12.9294C12.8656 11.6043 14.1524 10.5341 15.7323 10.5341C17.3122 10.5341 18.599 11.6043 18.599 12.9294C18.599 14.2417 17.3122 15.3119 15.7323 15.3119ZM10.9545 25.3516C9.89704 25.3516 9.04342 24.2814 9.04342 22.9563C9.04342 21.644 9.89704 20.5738 10.9545 20.5738C12.012 20.5738 12.8656 21.644 12.8656 22.9563C12.8656 24.2814 12.012 25.3516 10.9545 25.3516ZM15.7323 11.4897C16.2547 11.4897 16.6879 11.9229 16.6879 12.4452C16.6879 12.9676 16.2547 13.4008 15.7323 13.4008C15.2099 13.4008 14.7767 12.9676 14.7767 12.4452C14.7767 11.9229 15.2099 11.4897 15.7323 11.4897ZM24.3323 16.2674C23.9246 16.2674 23.5296 16.3566 23.1729 16.5223C22.5613 15.7451 21.7332 15.0826 20.7394 14.5729C21.4656 13.5537 21.8988 12.3178 21.8988 10.98V10.9036C23.2876 10.6106 24.3323 9.37471 24.3323 7.88404C24.3323 6.18952 22.9436 4.80078 21.249 4.80078C20.3699 4.80078 19.5545 5.17026 19.0194 5.75634C18.0366 5.13228 16.8965 4.80088 15.7323 4.80088C14.5681 4.80088 13.428 5.13228 12.4452 5.75634C11.9101 5.17026 11.0947 4.80078 10.2156 4.80078C8.52105 4.80078 7.13231 6.18952 7.13231 7.88404C7.13231 9.36197 8.17705 10.5978 9.55304 10.9036V10.98C9.55304 12.3178 9.99897 13.5664 10.7125 14.5729C9.73142 15.0826 8.90327 15.7451 8.29171 16.5223C7.85632 16.3261 7.37867 16.2424 6.90252 16.2787C6.42637 16.315 5.96694 16.4702 5.56633 16.7301C5.16571 16.99 4.83671 17.3463 4.60947 17.7663C4.38223 18.1863 4.26401 18.6566 4.26564 19.1341C4.26564 20.7267 5.53971 22.0008 7.13231 22.0008H7.20875C7.15779 22.3066 7.13231 22.6378 7.13231 22.9563C7.13231 25.5937 8.83956 27.7341 10.9545 27.7341C12.2413 27.7341 13.3753 26.9314 14.076 25.7083C14.6111 25.7848 15.159 25.823 15.7323 25.823C16.3056 25.823 16.8535 25.7848 17.3886 25.7083C18.0893 26.9314 19.2233 27.7341 20.5101 27.7341C22.625 27.7341 24.3323 25.5937 24.3323 22.9563C24.3323 22.6378 24.3068 22.3066 24.2558 22.0008H24.3323C25.9249 22.0008 27.199 20.7267 27.199 19.1341C27.199 17.5415 25.9249 16.2674 24.3323 16.2674Z" fill="#CF000C"/>
  </g>
</svg>
