<svg width="1725" height="144" viewBox="0 0 1725 144" fill="none" xmlns="http://www.w3.org/2000/svg">
<g opacity="0.06" clip-path="url(#clip0_2233_69241)">
<path d="M11.0594 29.5503H34.7965L40.0565 2.39062H77.1458L71.8859 29.5503H92.6559L97.781 2.39062H134.87L129.61 29.5503H148.088L147.278 58.8612H123.811L118.821 84.4074H137.703L136.893 113.853H113.021L107.761 141.281H70.672L75.932 113.853H55.162L49.902 141.281H13.0824L18.3424 113.853H0L0.809222 84.4074H24.0069L28.9971 58.8612H10.385L11.1942 29.5503H11.0594ZM61.0962 84.5419H81.8663L86.8565 58.9957H66.0864L61.0962 84.5419Z" fill="white"/>
<path d="M356.586 2.39062L369.668 58.1889L405.948 2.39062H445.33L356.181 141.281H316.664L344.178 98.2562L317.069 2.39062H356.586Z" fill="white"/>
<path d="M457.341 2.39062H511.559C542.175 2.39062 556.336 12.878 556.336 31.5671C556.336 48.3738 546.76 63.2982 531.655 68.5419C544.063 72.1721 551.346 81.4495 551.346 93.8192C551.346 95.9705 551.211 98.1217 550.806 100.407C546.086 124.878 527.878 141.55 487.687 141.55H430.367L457.341 2.39062ZM512.503 94.4915C512.503 87.4999 507.378 84.8108 496.319 84.8108H479.73L474.605 111.567H491.194C503.737 111.567 510.076 108.071 512.099 98.1217C512.233 96.9116 512.503 95.7016 512.503 94.4915ZM518.303 40.71C518.303 34.3906 513.447 32.3738 503.737 32.3738H489.98L485.394 56.0377H499.151C510.48 56.0377 516.145 52.8108 517.898 44.0713C518.033 42.8612 518.303 41.6511 518.303 40.71Z" fill="white"/>
<path d="M676.117 2.39062L694.999 141.416H653.998L651.57 118.424H605.175L594.251 141.416H553.25L626.35 2.39062H676.117ZM620.55 86.6931H648.873L644.287 37.8864L620.55 86.6931Z" fill="white"/>
<path d="M773.223 96.5083H759.736L751.104 141.416H712.531L739.64 2.39062H791.835C822.046 2.39062 841.602 14.0881 841.602 38.5587C841.602 41.92 841.198 45.5503 840.388 49.4494C834.184 81.1805 807.885 96.5083 773.223 96.5083ZM801.95 44.4747C801.95 35.7352 795.611 32.1049 784.552 32.1049H772.279L765.67 66.6595H778.078C791.026 66.6595 798.983 61.6847 801.411 49.315C801.815 47.5671 801.95 45.9536 801.95 44.3402" fill="white"/>
<path d="M1035.14 33.7184H996.562L1002.63 2.39062H1118.62L1112.42 33.7184H1073.84L1052.8 141.281H1014.23L1035.14 33.7184Z" fill="white"/>
<path d="M1169.72 96.5083H1156.24L1147.6 141.416H1109.03L1136.14 2.39062H1188.33C1218.55 2.39062 1238.1 14.0881 1238.1 38.5587C1238.1 41.92 1237.7 45.5503 1236.89 49.4494C1230.68 81.1805 1204.38 96.5083 1169.72 96.5083ZM1198.45 44.4747C1198.45 35.7352 1192.11 32.1049 1181.05 32.1049H1168.78L1162.17 66.6595H1174.58C1187.53 66.6595 1195.48 61.6847 1197.91 49.315C1198.32 47.5671 1198.45 45.9536 1198.45 44.3402" fill="white"/>
<path d="M1244.57 90.084C1244.57 37.916 1281.66 0 1328.32 0C1364.2 0 1383.89 21.2437 1383.89 54.0504C1383.89 106.084 1346.67 143.731 1300.27 143.731C1264.67 143.731 1244.71 122.622 1244.71 90.084M1344.51 58.7563C1344.51 41.8151 1336.42 31.7311 1322.26 31.7311C1302.7 31.7311 1284.49 52.9748 1284.49 85.3782C1284.49 102.05 1292.45 112 1306.61 112C1325.76 112 1344.64 91.1597 1344.64 58.7563" fill="white"/>
<path d="M1417.49 2.39062H1455.12L1440.42 77.9537L1499.76 2.39062H1537.66L1510.55 141.281H1472.92L1487.62 65.4494L1428.28 141.281H1390.38L1417.49 2.39062Z" fill="white"/>
<path d="M1587.57 33.7184H1548.99L1555.2 2.39062H1671.05L1664.85 33.7184H1626.27L1605.37 141.281H1566.66L1587.57 33.7184Z" fill="white"/>
<path d="M933.982 0C963.384 0 992.246 15.7311 990.358 53.5126H956.101C954.078 37.5126 942.749 33.3445 927.509 33.3445C903.636 33.3445 888.531 53.3782 884.08 75.563C880.304 95.7311 892.712 110.521 912.808 110.521C928.183 110.521 941.535 103.395 948.279 88.0672H983.884C970.802 128.269 936.545 144.134 906.469 144.134C870.189 144.134 838.764 119.529 847.396 71.5294C857.241 22.3193 896.084 0.134454 933.847 0.134454" fill="white"/>
<path d="M257.078 0C286.48 0 315.342 15.7311 313.454 53.5126H279.197C277.174 37.5126 265.845 33.3445 250.604 33.3445C226.732 33.3445 211.627 53.3782 207.176 75.563C203.4 95.7311 215.808 110.521 235.904 110.521C251.279 110.521 264.631 103.395 271.374 88.0672H306.98C293.898 128.269 259.641 144.134 229.43 144.134C193.15 144.134 161.725 119.529 170.357 71.5294C180.202 22.3193 219.045 0.134454 256.808 0.134454" fill="white"/>
<path d="M1693.65 143.17C1706.81 143.17 1717.47 132.558 1717.47 119.468C1717.47 106.378 1706.81 95.7656 1693.65 95.7656C1680.49 95.7656 1669.83 106.378 1669.83 119.468C1669.83 132.558 1680.49 143.17 1693.65 143.17Z" fill="white"/>
</g>
<defs>
<clipPath id="clip0_2233_69241">
<rect width="1725" height="144" fill="white"/>
</clipPath>
</defs>
</svg>
