<svg xmlns="http://www.w3.org/2000/svg" viewBox="0 0 15 13">
  <path fill-rule="evenodd" clip-rule="evenodd" d="M1.80354 5.64788C5.38194 4.02226 7.76414 2.94207 8.96035 2.41802C12.3649 0.931435 13.0806 0.674757 13.5407 0.664062C13.6429 0.664062 13.8679 0.685452 14.0212 0.813791C14.1439 0.92074 14.1746 1.05977 14.195 1.16672C14.2155 1.27367 14.2359 1.49826 14.2155 1.66938C14.0315 3.70141 13.234 8.63175 12.825 10.8991C12.6512 11.8616 12.3138 12.1825 11.9867 12.2145C11.271 12.2787 10.7291 11.7226 10.0441 11.252C8.96035 10.5141 8.35713 10.0542 7.30406 9.32692C6.0874 8.49272 6.87465 8.03284 7.56988 7.2842C7.75391 7.09169 10.8927 4.09712 10.954 3.82975C10.9643 3.79766 10.9643 3.66932 10.8927 3.60516C10.8211 3.54099 10.7189 3.56238 10.6371 3.58377C10.5246 3.60516 8.80699 4.80298 5.46374 7.16655C4.97298 7.51948 4.53335 7.6906 4.13461 7.67991C3.69498 7.66921 2.85661 7.42323 2.22273 7.20933C1.45592 6.95265 0.842484 6.81362 0.893604 6.36444C0.924276 6.12915 1.231 5.89386 1.80354 5.64788Z" />
</svg>
