<svg xmlns="http://www.w3.org/2000/svg" viewBox="0 0 13 12" >
    <path d="M4.83211 0.168945H1.94461C1.37438 0.168945 0.912109 0.631211 0.912109 1.20145V4.08895C0.912109 4.65918 1.37438 5.12145 1.94461 5.12145H4.83211C5.40234 5.12145 5.86461 4.65918 5.86461 4.08895V1.20145C5.86461 0.631211 5.40234 0.168945 4.83211 0.168945Z" />
    <path d="M11.545 0.168945H8.6575C8.08727 0.168945 7.625 0.631211 7.625 1.20145V4.08895C7.625 4.65918 8.08727 5.12145 8.6575 5.12145H11.545C12.1152 5.12145 12.5775 4.65918 12.5775 4.08895V1.20145C12.5775 0.631211 12.1152 0.168945 11.545 0.168945Z" />
    <path d="M11.545 6.875H8.6575C8.08727 6.875 7.625 7.33727 7.625 7.9075V10.795C7.625 11.3652 8.08727 11.8275 8.6575 11.8275H11.545C12.1152 11.8275 12.5775 11.3652 12.5775 10.795V7.9075C12.5775 7.33727 12.1152 6.875 11.545 6.875Z" />
    <path d="M4.83211 6.875H1.94461C1.37438 6.875 0.912109 7.33727 0.912109 7.9075V10.795C0.912109 11.3652 1.37438 11.8275 1.94461 11.8275H4.83211C5.40234 11.8275 5.86461 11.3652 5.86461 10.795V7.9075C5.86461 7.33727 5.40234 6.875 4.83211 6.875Z" />
</svg>
