<svg xmlns="http://www.w3.org/2000/svg" viewBox="0 0 16 16" fill="none">
  <path fill-rule="evenodd" clip-rule="evenodd" d="M3.20039 13.1996V2.79961H3.00039C2.84126 2.79961 2.68865 2.7364 2.57613 2.62387C2.4636 2.51135 2.40039 2.35874 2.40039 2.19961C2.40039 2.04048 2.4636 1.88787 2.57613 1.77535C2.68865 1.66282 2.84126 1.59961 3.00039 1.59961H13.0004C13.1595 1.59961 13.3121 1.66282 13.4247 1.77535C13.5372 1.88787 13.6004 2.04048 13.6004 2.19961C13.6004 2.35874 13.5372 2.51135 13.4247 2.62387C13.3121 2.7364 13.1595 2.79961 13.0004 2.79961H12.8004V13.1996H13.0004C13.1595 13.1996 13.3121 13.2628 13.4247 13.3753C13.5372 13.4879 13.6004 13.6405 13.6004 13.7996C13.6004 13.9587 13.5372 14.1114 13.4247 14.2239C13.3121 14.3364 13.1595 14.3996 13.0004 14.3996H10.2004C10.0413 14.3996 9.88865 14.3364 9.77613 14.2239C9.66361 14.1114 9.60039 13.9587 9.60039 13.7996V11.7996C9.60039 11.6405 9.53718 11.4879 9.42465 11.3753C9.31213 11.2628 9.15952 11.1996 9.00039 11.1996H7.00039C6.84126 11.1996 6.68865 11.2628 6.57613 11.3753C6.4636 11.4879 6.40039 11.6405 6.40039 11.7996V13.7996C6.40039 13.9587 6.33718 14.1114 6.22465 14.2239C6.11213 14.3364 5.95952 14.3996 5.80039 14.3996H3.00039C2.84126 14.3996 2.68865 14.3364 2.57613 14.2239C2.4636 14.1114 2.40039 13.9587 2.40039 13.7996C2.40039 13.6405 2.4636 13.4879 2.57613 13.3753C2.68865 13.2628 2.84126 13.1996 3.00039 13.1996H3.20039ZM5.60039 4.39961C5.60039 4.29352 5.64253 4.19178 5.71755 4.11677C5.79256 4.04175 5.8943 3.99961 6.00039 3.99961H6.80039C6.90648 3.99961 7.00822 4.04175 7.08323 4.11677C7.15825 4.19178 7.20039 4.29352 7.20039 4.39961V5.19961C7.20039 5.3057 7.15825 5.40744 7.08323 5.48245C7.00822 5.55747 6.90648 5.59961 6.80039 5.59961H6.00039C5.8943 5.59961 5.79256 5.55747 5.71755 5.48245C5.64253 5.40744 5.60039 5.3057 5.60039 5.19961V4.39961ZM6.00039 7.19961C5.8943 7.19961 5.79256 7.24175 5.71755 7.31677C5.64253 7.39178 5.60039 7.49352 5.60039 7.59961V8.39961C5.60039 8.5057 5.64253 8.60744 5.71755 8.68245C5.79256 8.75747 5.8943 8.79961 6.00039 8.79961H6.80039C6.90648 8.79961 7.00822 8.75747 7.08323 8.68245C7.15825 8.60744 7.20039 8.5057 7.20039 8.39961V7.59961C7.20039 7.49352 7.15825 7.39178 7.08323 7.31677C7.00822 7.24175 6.90648 7.19961 6.80039 7.19961H6.00039ZM8.80039 4.39961C8.80039 4.29352 8.84253 4.19178 8.91755 4.11677C8.99256 4.04175 9.0943 3.99961 9.20039 3.99961H10.0004C10.1065 3.99961 10.2082 4.04175 10.2832 4.11677C10.3582 4.19178 10.4004 4.29352 10.4004 4.39961V5.19961C10.4004 5.3057 10.3582 5.40744 10.2832 5.48245C10.2082 5.55747 10.1065 5.59961 10.0004 5.59961H9.20039C9.0943 5.59961 8.99256 5.55747 8.91755 5.48245C8.84253 5.40744 8.80039 5.3057 8.80039 5.19961V4.39961ZM9.20039 7.19961C9.0943 7.19961 8.99256 7.24175 8.91755 7.31677C8.84253 7.39178 8.80039 7.49352 8.80039 7.59961V8.39961C8.80039 8.5057 8.84253 8.60744 8.91755 8.68245C8.99256 8.75747 9.0943 8.79961 9.20039 8.79961H10.0004C10.1065 8.79961 10.2082 8.75747 10.2832 8.68245C10.3582 8.60744 10.4004 8.5057 10.4004 8.39961V7.59961C10.4004 7.49352 10.3582 7.39178 10.2832 7.31677C10.2082 7.24175 10.1065 7.19961 10.0004 7.19961H9.20039Z" fill="white"/>
</svg>
