<svg xmlns="http://www.w3.org/2000/svg" viewBox="0 0 24 24" >
  <path fill-rule="evenodd" clip-rule="evenodd" d="M18.7868 6.53033C19.0797 6.23744 19.0797 5.76256 18.7868 5.46967C18.494 5.17678 18.0191 5.17678 17.7262 5.46967L12.1283 11.0676L6.53033 5.46967C6.23744 5.17678 5.76256 5.17678 5.46967 5.46967C5.17678 5.76256 5.17678 6.23744 5.46967 6.53033L11.0676 12.1283L5.46967 17.7262C5.17678 18.0191 5.17678 18.494 5.46967 18.7868C5.76256 19.0797 6.23744 19.0797 6.53033 18.7868L12.1283 13.1889L17.7262 18.7868C18.0191 19.0797 18.494 19.0797 18.7868 18.7868C19.0797 18.494 19.0797 18.0191 18.7868 17.7262L13.1889 12.1283L18.7868 6.53033Z" />
</svg>
