<svg xmlns="http://www.w3.org/2000/svg" viewBox="0 0 16 16" fill="none">
    <path d="M9.01153 7.84376L8.90546 7.94983L9.01153 8.05589L11.9297 10.9741C12.0564 11.1008 12.1276 11.2726 12.1276 11.4517C12.1276 11.6308 12.0564 11.8026 11.9297 11.9293C11.8031 12.0559 11.6313 12.1271 11.4522 12.1271C11.273 12.1271 11.1013 12.0559 10.9746 11.9293L8.05638 9.01105L7.95031 8.90498L7.84424 9.01105L4.92602 11.9293C4.79936 12.0559 4.62757 12.1271 4.44845 12.1271C4.26932 12.1271 4.09753 12.0559 3.97087 11.9293C3.84421 11.8026 3.77305 11.6308 3.77305 11.4517C3.77305 11.2726 3.84421 11.1008 3.97087 10.9741L6.88909 8.05589L6.99515 7.94983L6.88909 7.84376L3.97087 4.92554C3.84421 4.79888 3.77305 4.62709 3.77305 4.44797C3.77305 4.26884 3.84421 4.09705 3.97087 3.97039C4.09753 3.84373 4.26932 3.77257 4.44845 3.77257C4.62757 3.77257 4.79936 3.84373 4.92602 3.97039L7.84424 6.88861L7.95031 6.99467L8.05637 6.88861L10.9746 3.97039C11.1013 3.84373 11.273 3.77257 11.4522 3.77257C11.6313 3.77257 11.8031 3.84373 11.9297 3.97039C12.0564 4.09705 12.1276 4.26884 12.1276 4.44797C12.1276 4.62709 12.0564 4.79888 11.9297 4.92554L9.01153 7.84376Z" fill="black" stroke="#F5F5F5" stroke-width="0.3"/>
</svg>
