<svg viewBox="0 0 400 99" fill="none" xmlns="http://www.w3.org/2000/svg">
<path opacity="0.65" d="M20.5 94.9986C46.3333 98.4986 85.6679 91.7355 96.5 42.4986C107.5 -7.50139 177.5 2.5 189.5 16.9984C198.5 27.8722 197.2 34.8976 194 42.4986C190 52 173.5 82.5001 233 89.5001C280.6 95.1001 321.833 94.8335 336.5 94.0001" stroke="black" stroke-width="2" stroke-dasharray="5 5"/>
<circle cx="6.5" cy="92.5" r="6.5" fill="#CF000C"/>
<g clip-path="url(#clip0_4004_23241)">
<path d="M352.105 49.1318C344.937 49.1318 338.967 43.1708 338.967 35.9998C338.967 28.831 344.798 22.9998 351.967 22.9998C359.14 22.9998 364.967 28.831 364.967 35.9994L352.105 49.1318ZM352.105 49.1318C359.307 49.1318 364.97 43.141 364.967 35.9998L352.105 49.1318ZM349.08 92.9364L349.072 92.9264L349.063 92.9167C348.527 92.3001 347.981 91.6734 347.426 91.0369C341.241 83.9414 333.997 75.6323 328.117 66.7178C321.701 56.9924 317 46.6805 317 36.5788C317 17.2706 333.224 0.965332 352.343 0.965332C363.409 0.965332 372.049 5.04965 377.929 11.5005C383.821 17.9637 387 26.8662 387 36.5788C387 46.2404 382.658 56.7955 376.714 66.756C370.783 76.6942 363.328 85.9244 357.247 92.9149C357.247 92.9149 356.774 93.4453 356.018 93.97C355.245 94.5067 354.278 94.9653 353.275 94.9653H353.045C352.042 94.9653 351.071 94.5063 350.294 93.9689C349.607 93.4942 349.159 93.0195 349.088 92.9449C349.08 92.9357 349.077 92.9326 349.08 92.9364ZM354.254 90.2554L354.278 90.2307L354.301 90.2043C363.771 79.3084 370.934 69.3602 375.734 60.4245C380.529 51.4971 383 43.5181 383 36.5788C383 28.7711 380.653 20.8742 375.618 14.9112C370.563 8.92324 362.862 4.96383 352.343 4.96383C335.335 4.96383 321 19.4405 321 36.5788C321 45.7149 325.347 55.1748 331.136 64.0396C336.931 72.9126 344.265 81.3264 350.412 88.3788L350.431 88.4001L350.432 88.401L352 90.2046L352.032 90.2412L352.067 90.2746C352.22 90.4194 352.412 90.572 352.588 90.693L353.169 91.0904L353.739 90.6786C353.877 90.5789 354.087 90.4218 354.254 90.2554ZM335.105 36.1318C335.105 26.7436 342.717 19.1318 352.105 19.1318C361.493 19.1318 369.105 26.7436 369.105 36.1318C369.105 45.52 361.493 53.1318 352.105 53.1318C342.717 53.1318 335.105 45.52 335.105 36.1318Z" fill="#FFA7AC" stroke="white" stroke-width="2"/>
</g>
<defs>
<clipPath id="clip0_4004_23241">
<rect width="96" height="96" fill="white" transform="translate(304)"/>
</clipPath>
</defs>
</svg>
