<svg xmlns="http://www.w3.org/2000/svg" viewBox="0 0 18 18">
  <path d="M15.6306 4.57996C15.2475 4.19672 14.7927 3.8927 14.2921 3.68528C13.7915 3.47785 13.2549 3.37109 12.7131 3.37109C12.1712 3.37109 11.6347 3.47785 11.1341 3.68528C10.6335 3.8927 10.1786 4.19672 9.79558 4.57996L9.00058 5.37496L8.20558 4.57996C7.43181 3.80619 6.38235 3.37149 5.28808 3.37149C4.1938 3.37149 3.14435 3.80619 2.37058 4.57996C1.59681 5.35373 1.16211 6.40319 1.16211 7.49746C1.16211 8.59174 1.59681 9.64119 2.37058 10.415L3.16558 11.21L9.00058 17.045L14.8356 11.21L15.6306 10.415C16.0138 10.0319 16.3178 9.57707 16.5253 9.07648C16.7327 8.57588 16.8394 8.03933 16.8394 7.49746C16.8394 6.9556 16.7327 6.41904 16.5253 5.91845C16.3178 5.41785 16.0138 4.96303 15.6306 4.57996Z" stroke-width="1.2" stroke-linecap="round" stroke-linejoin="round"/>
</svg>
