<svg xmlns="http://www.w3.org/2000/svg" viewBox="0 0 34 34" >
  <path d="M27.1494 8.85062C26.5629 8.26392 25.8667 7.79851 25.1003 7.48097C24.334 7.16344 23.5126 7 22.6831 7C21.8535 7 21.0321 7.16344 20.2658 7.48097C19.4994 7.79851 18.8032 8.26392 18.2167 8.85062L16.9997 10.0677L15.7826 8.85062C14.5981 7.66608 12.9915 7.00061 11.3163 7.00061C9.64114 7.00061 8.03455 7.66608 6.85001 8.85062C5.66547 10.0352 5 11.6417 5 13.3169C5 14.9921 5.66547 16.5987 6.85001 17.7833L8.06705 19.0003L16.9997 27.9329L25.9323 19.0003L27.1494 17.7833C27.7361 17.1968 28.2015 16.5006 28.519 15.7342C28.8366 14.9679 29 14.1465 29 13.3169C29 12.4874 28.8366 11.666 28.519 10.8997C28.2015 10.1333 27.7361 9.43705 27.1494 8.85062Z"  stroke-width="1.2" stroke-linecap="round" stroke-linejoin="round"/>
</svg>
