<svg xmlns="http://www.w3.org/2000/svg" viewBox="0 0 14 14" >
  <path fill-rule="evenodd" clip-rule="evenodd" d="M0.4375 2.46754H6.95715C6.92816 2.32645 6.91326 2.18283 6.91266 2.03879L6.91272 2.02652C6.91286 1.88076 6.92762 1.73538 6.9568 1.59257H0.4375C0.195809 1.59257 0 1.78835 0 2.03007C0 2.27179 0.195781 2.4676 0.4375 2.46754ZM6.27329 6.99824V7.00371C6.27104 7.75252 5.65999 8.36162 4.91148 8.36162C4.16366 8.3616 3.55258 7.75314 3.54938 7.00496L3.54941 6.99728C3.55034 6.24716 4.16106 5.63742 4.91148 5.63742C5.66128 5.63739 6.27167 6.24686 6.27329 6.99632V6.99824ZM13.5625 6.56202H7.04315C7.07226 6.70433 7.08707 6.84919 7.08734 6.99444V7.00619C7.08695 7.15093 7.0721 7.29527 7.04301 7.43705L13.5625 7.43702C13.8042 7.43702 14 7.24127 14 6.99955C14 6.7578 13.8042 6.56202 13.5625 6.56202ZM2.77949 6.56202H0.4375C0.195809 6.56202 0 6.75783 0 6.99955C0 7.24124 0.195781 7.43705 0.4375 7.43705L2.77985 7.43702C2.75084 7.29593 2.73594 7.15229 2.73536 7.00825L2.73539 6.99597C2.73552 6.85021 2.75029 6.70483 2.77949 6.56202ZM9.08852 13.3311C8.33872 13.3311 7.72833 12.7216 7.72671 11.9722V11.9648C7.72898 11.216 8.34001 10.6069 9.08849 10.6069C9.83637 10.6069 10.4474 11.2154 10.4506 11.9635L10.4506 11.9712C10.4497 12.7213 9.83891 13.3311 9.08852 13.3311ZM13.5625 11.5315H11.2205C11.2496 11.6738 11.2644 11.8186 11.2646 11.9639V11.9756C11.2642 12.1203 11.2494 12.2647 11.2203 12.4064H13.5625C13.8042 12.4064 14 12.2107 14 11.9689C14 11.7273 13.8042 11.5315 13.5625 11.5315ZM6.9568 11.5315H0.4375C0.195809 11.5315 0 11.7273 0 11.969C0 12.2107 0.195781 12.4065 0.4375 12.4065H6.95715C6.92816 12.2654 6.91326 12.1218 6.91266 11.9777L6.91272 11.9654C6.91285 11.8197 6.92762 11.6743 6.9568 11.5315ZM7.72671 2.03136V2.02589C7.72898 1.27705 8.34001 0.667969 9.08849 0.667969C9.83637 0.667941 10.4474 1.27645 10.4506 2.02463L10.4506 2.03229C10.4493 2.78208 9.83891 3.39217 9.08849 3.39217C8.33872 3.39217 7.7283 2.78271 7.72671 2.03327V2.03136ZM11.2203 2.4676L13.5625 2.46754C13.8042 2.46754 14 2.27179 14 2.03007C14 1.78832 13.8042 1.59257 13.5625 1.59257H11.2205C11.2496 1.73486 11.2644 1.87972 11.2646 2.02496V2.03671C11.2643 2.18146 11.2494 2.32581 11.2203 2.4676Z" />
</svg>
