<svg xmlns="http://www.w3.org/2000/svg" viewBox="0 0 25 24" fill="none">
  <path d="M21.8604 2.2499H3.14039C3.03696 2.2499 2.93776 2.29099 2.86462 2.36413C2.79148 2.43727 2.75039 2.53647 2.75039 2.6399V21.3599C2.75039 21.4633 2.79148 21.5625 2.86462 21.6357C2.93776 21.7088 3.03696 21.7499 3.14039 21.7499H21.8604C21.9638 21.7499 22.063 21.7088 22.1362 21.6357C22.2093 21.5625 22.2504 21.4633 22.2504 21.3599V2.6399C22.2504 2.53647 22.2093 2.43727 22.1362 2.36413C22.063 2.29099 21.9638 2.2499 21.8604 2.2499ZM12.8904 20.9699V15.2094H19.1352C19.2386 15.2094 19.3378 15.1683 19.411 15.0952C19.4841 15.0221 19.5252 14.9229 19.5252 14.8194C19.5252 14.716 19.4841 14.6168 19.411 14.5436C19.3378 14.4705 19.2386 14.4294 19.1352 14.4294H5.86559C5.76216 14.4294 5.66296 14.4705 5.58982 14.5436C5.51668 14.6168 5.47559 14.716 5.47559 14.8194C5.47559 14.9229 5.51668 15.0221 5.58982 15.0952C5.66296 15.1683 5.76216 15.2094 5.86559 15.2094H12.1104V20.9699H3.53039V9.5363H9.30431C9.40774 9.5363 9.50694 9.49521 9.58008 9.42207C9.65322 9.34893 9.69431 9.24974 9.69431 9.1463C9.69431 9.04287 9.65322 8.94367 9.58008 8.87053C9.50694 8.79739 9.40774 8.7563 9.30431 8.7563H3.53039V3.0299H21.4704V8.7563H15.7725V4.58726C15.7725 4.48383 15.7315 4.38463 15.6583 4.31149C15.5852 4.23835 15.486 4.19726 15.3825 4.19726C15.2791 4.19726 15.1799 4.23835 15.1068 4.31149C15.0336 4.38463 14.9925 4.48383 14.9925 4.58726V10.4591C14.9925 10.5625 15.0336 10.6617 15.1068 10.7349C15.1799 10.808 15.2791 10.8491 15.3825 10.8491C15.486 10.8491 15.5852 10.808 15.6583 10.7349C15.7315 10.6617 15.7725 10.5625 15.7725 10.4591V9.5363H21.4704V20.9699H12.8904Z" fill="#181823" stroke="#181823" stroke-width="0.3"/>
</svg>
