<svg xmlns="http://www.w3.org/2000/svg" viewBox="0 0 32 32" fill="none">
  <path d="M19.0148 28.3955V24.6942H22.03V28.5147C22.03 28.8306 21.9244 29.0955 21.7134 29.3094C21.5023 29.5244 21.241 29.6319 20.9294 29.6319H20.2329C19.8872 29.6319 19.5977 29.5137 19.3645 29.2773C19.1314 29.041 19.0148 28.7475 19.0148 28.3971M9.96917 28.3971V23.5175H3.00858C2.5161 23.5175 2.15729 23.2989 1.93216 22.8619C1.70602 22.4248 1.72762 22.0005 1.99698 21.5889L6.72783 14.3482H6.1474C5.66698 14.3482 5.30616 14.1312 5.06495 13.6972C4.82373 13.2631 4.85037 12.8403 5.14485 12.4287L10.4652 4.68221C10.5958 4.49882 10.7526 4.36434 10.9355 4.27876C11.1185 4.19318 11.3014 4.15039 11.4843 4.15039C11.6672 4.15039 11.8471 4.19318 12.024 4.27876C12.2019 4.36332 12.3567 4.49781 12.4884 4.68221L17.8087 12.4303C18.1022 12.8408 18.1288 13.2637 17.8886 13.6987C17.6474 14.1317 17.2866 14.3482 16.8061 14.3482H16.2257L20.9656 21.5889C21.235 22.0005 21.2566 22.4248 21.0304 22.8619C20.8053 23.2989 20.4465 23.5175 19.954 23.5175H12.9844V28.5147C12.9844 28.8306 12.8788 29.0955 12.6678 29.3094C12.4567 29.5234 12.1954 29.6303 11.8838 29.6303H11.1873C10.8416 29.6303 10.5521 29.5122 10.3189 29.2758C10.0858 29.0394 9.96917 28.746 9.96917 28.3955M23.5949 23.5175L18.3771 15.5249H19.0148C19.5093 15.5249 19.8751 15.3043 20.1123 14.8632C20.3485 14.4241 20.3198 13.9987 20.0264 13.5871L16.7096 8.79617L19.5108 4.68221C19.6414 4.49882 19.7982 4.36434 19.9811 4.27876C20.1641 4.19318 20.347 4.15039 20.5299 4.15039C20.7128 4.15039 20.8927 4.19318 21.0696 4.27876C21.2475 4.36332 21.4023 4.49781 21.534 4.68221L26.8543 12.4303C27.1478 12.8408 27.1744 13.2637 26.9342 13.6987C26.693 14.1317 26.3322 14.3482 25.8517 14.3482H25.2713L30.0021 21.5889C30.2715 22.0005 30.2931 22.4248 30.067 22.8619C29.8418 23.2989 29.483 23.5175 28.9906 23.5175H23.5949Z" fill="#D0E8CB"/>
</svg>
