<svg xmlns="http://www.w3.org/2000/svg" width="24" height="25" viewBox="0 0 24 25" fill="none">
  <path d="M13.147 21.322L14.817 20.154C16.9521 18.6594 18.6046 16.5743 19.5722 14.1543C20.5397 11.7343 20.7801 9.08461 20.264 6.53C20.2385 6.40411 20.1844 6.28578 20.1059 6.18416C20.0273 6.08255 19.9264 6.00037 19.811 5.944L12 2.125L4.19 5.944C4.07441 6.00025 3.97332 6.08238 3.89459 6.184C3.81586 6.28562 3.76159 6.40402 3.736 6.53C3.21998 9.0847 3.46057 11.7345 4.42828 14.1544C5.39599 16.5744 7.04877 18.6595 9.184 20.154L10.854 21.322C11.1901 21.5571 11.5903 21.6832 12.0005 21.6832C12.4107 21.6832 12.8109 21.5571 13.147 21.322Z" stroke="white" stroke-width="1.5" stroke-linecap="round" stroke-linejoin="round"/>
</svg>
