<svg xmlns="http://www.w3.org/2000/svg" width="23" height="16" viewBox="0 0 23 16" fill="none">
  <path fill-rule="evenodd" clip-rule="evenodd" d="M13.8111 0.967285C13.6272 2.3463 13.8111 4.4051 15.02 6.09097C15.5996 6.89915 16.3921 7.59082 17.4369 8.07813C16.3921 8.56544 15.5996 9.2571 15.02 10.0653C13.8111 11.7512 13.6272 13.81 13.8111 15.189L15.2979 14.9907C15.1485 13.8697 15.3146 12.2285 16.239 10.9394C17.0043 9.87214 18.3637 8.94363 20.7733 8.82862C21.1084 8.84275 21.4575 8.84311 21.821 8.82877C21.8836 8.83154 21.9467 8.8348 22.0105 8.83855L22.0116 8.81997C22.0405 8.81844 22.0695 8.81682 22.0986 8.81511L22.0552 8.07813L22.0986 7.34114C22.0695 7.33943 22.0405 7.33781 22.0116 7.33628L22.0105 7.3177C21.9467 7.32145 21.8836 7.32471 21.821 7.32748C21.4575 7.31314 21.1084 7.31351 20.7733 7.32763C18.3637 7.21263 17.0043 6.28411 16.239 5.21685C15.3146 3.92771 15.1485 2.28652 15.2979 1.16553L13.8111 0.967285Z" fill="#020202"/>
  <path d="M22 8.06641H0" stroke="#020202" stroke-width="1.5"/>
</svg>
