<svg xmlns="http://www.w3.org/2000/svg" viewBox="0 0 16 16" fill="none">
  <path d="M8.0013 1.33398C5.33464 1.33398 2.66797 1.66732 2.66797 4.00065V10.334C2.66797 11.6207 3.71464 12.6673 5.0013 12.6673L4.0013 13.6673V14.0007H5.33464L6.66797 12.6673H9.33464L10.668 14.0007H12.0013V13.6673L11.0013 12.6673C12.288 12.6673 13.3346 11.6207 13.3346 10.334V4.00065C13.3346 1.66732 10.668 1.33398 8.0013 1.33398ZM5.0013 11.334C4.44797 11.334 4.0013 10.8873 4.0013 10.334C4.0013 9.78065 4.44797 9.33398 5.0013 9.33398C5.55464 9.33398 6.0013 9.78065 6.0013 10.334C6.0013 10.8873 5.55464 11.334 5.0013 11.334ZM7.33464 6.66732H4.0013V4.00065H7.33464V6.66732ZM11.0013 11.334C10.448 11.334 10.0013 10.8873 10.0013 10.334C10.0013 9.78065 10.448 9.33398 11.0013 9.33398C11.5546 9.33398 12.0013 9.78065 12.0013 10.334C12.0013 10.8873 11.5546 11.334 11.0013 11.334ZM12.0013 6.66732H8.66797V4.00065H12.0013V6.66732Z" fill="white"/>
</svg>
